<?xml version="1.0" encoding="UTF-8"?>
<svg xmlns="http://www.w3.org/2000/svg" xmlns:xlink="http://www.w3.org/1999/xlink" width="504pt" height="504pt" viewBox="0 0 504 504" version="1.1">
<g id="surface923">
<rect x="0" y="0" width="504" height="504" style="fill:rgb(100%,100%,100%);fill-opacity:1;stroke:none;"/>
<path style="fill-rule:nonzero;fill:rgb(18.431373%,30.980392%,30.980392%);fill-opacity:1;stroke-width:0.708661;stroke-linecap:round;stroke-linejoin:round;stroke:rgb(18.431373%,30.980392%,30.980392%);stroke-opacity:1;stroke-miterlimit:10;" d="M 20.667969 492.222656 C 20.667969 497.132812 16.6875 501.109375 11.777344 501.109375 C 6.867188 501.109375 2.890625 497.132812 2.890625 492.222656 C 2.890625 487.3125 6.867188 483.332031 11.777344 483.332031 C 16.6875 483.332031 20.667969 487.3125 20.667969 492.222656 "/>
<path style="fill-rule:nonzero;fill:rgb(18.431373%,30.980392%,30.980392%);fill-opacity:1;stroke-width:0.708661;stroke-linecap:round;stroke-linejoin:round;stroke:rgb(18.431373%,30.980392%,30.980392%);stroke-opacity:1;stroke-miterlimit:10;" d="M 72.757812 492.222656 C 72.757812 497.132812 68.777344 501.109375 63.867188 501.109375 C 58.957031 501.109375 54.976562 497.132812 54.976562 492.222656 C 54.976562 487.3125 58.957031 483.332031 63.867188 483.332031 C 68.777344 483.332031 72.757812 487.3125 72.757812 492.222656 "/>
<path style="fill-rule:nonzero;fill:rgb(18.431373%,30.980392%,30.980392%);fill-opacity:1;stroke-width:0.708661;stroke-linecap:round;stroke-linejoin:round;stroke:rgb(18.431373%,30.980392%,30.980392%);stroke-opacity:1;stroke-miterlimit:10;" d="M 124.84375 492.222656 C 124.84375 497.132812 120.863281 501.109375 115.953125 501.109375 C 111.042969 501.109375 107.0625 497.132812 107.0625 492.222656 C 107.0625 487.3125 111.042969 483.332031 115.953125 483.332031 C 120.863281 483.332031 124.84375 487.3125 124.84375 492.222656 "/>
<path style="fill-rule:nonzero;fill:rgb(18.431373%,30.980392%,30.980392%);fill-opacity:1;stroke-width:0.708661;stroke-linecap:round;stroke-linejoin:round;stroke:rgb(18.431373%,30.980392%,30.980392%);stroke-opacity:1;stroke-miterlimit:10;" d="M 176.929688 492.222656 C 176.929688 497.132812 172.949219 501.109375 168.039062 501.109375 C 163.128906 501.109375 159.148438 497.132812 159.148438 492.222656 C 159.148438 487.3125 163.128906 483.332031 168.039062 483.332031 C 172.949219 483.332031 176.929688 487.3125 176.929688 492.222656 "/>
<path style="fill-rule:nonzero;fill:rgb(18.431373%,30.980392%,30.980392%);fill-opacity:1;stroke-width:0.708661;stroke-linecap:round;stroke-linejoin:round;stroke:rgb(18.431373%,30.980392%,30.980392%);stroke-opacity:1;stroke-miterlimit:10;" d="M 229.015625 492.222656 C 229.015625 497.132812 225.035156 501.109375 220.125 501.109375 C 215.214844 501.109375 211.234375 497.132812 211.234375 492.222656 C 211.234375 487.3125 215.214844 483.332031 220.125 483.332031 C 225.035156 483.332031 229.015625 487.3125 229.015625 492.222656 "/>
<path style="fill-rule:nonzero;fill:rgb(18.431373%,30.980392%,30.980392%);fill-opacity:1;stroke-width:0.708661;stroke-linecap:round;stroke-linejoin:round;stroke:rgb(18.431373%,30.980392%,30.980392%);stroke-opacity:1;stroke-miterlimit:10;" d="M 281.101562 492.222656 C 281.101562 497.132812 277.125 501.109375 272.214844 501.109375 C 267.304688 501.109375 263.324219 497.132812 263.324219 492.222656 C 263.324219 487.3125 267.304688 483.332031 272.214844 483.332031 C 277.125 483.332031 281.101562 487.3125 281.101562 492.222656 "/>
<path style="fill-rule:nonzero;fill:rgb(18.431373%,30.980392%,30.980392%);fill-opacity:1;stroke-width:0.708661;stroke-linecap:round;stroke-linejoin:round;stroke:rgb(18.431373%,30.980392%,30.980392%);stroke-opacity:1;stroke-miterlimit:10;" d="M 333.191406 492.222656 C 333.191406 497.132812 329.210938 501.109375 324.300781 501.109375 C 319.390625 501.109375 315.410156 497.132812 315.410156 492.222656 C 315.410156 487.3125 319.390625 483.332031 324.300781 483.332031 C 329.210938 483.332031 333.191406 487.3125 333.191406 492.222656 "/>
<path style="fill-rule:nonzero;fill:rgb(18.431373%,30.980392%,30.980392%);fill-opacity:1;stroke-width:0.708661;stroke-linecap:round;stroke-linejoin:round;stroke:rgb(18.431373%,30.980392%,30.980392%);stroke-opacity:1;stroke-miterlimit:10;" d="M 385.277344 492.222656 C 385.277344 497.132812 381.296875 501.109375 376.386719 501.109375 C 371.476562 501.109375 367.496094 497.132812 367.496094 492.222656 C 367.496094 487.3125 371.476562 483.332031 376.386719 483.332031 C 381.296875 483.332031 385.277344 487.3125 385.277344 492.222656 "/>
<path style="fill-rule:nonzero;fill:rgb(18.431373%,30.980392%,30.980392%);fill-opacity:1;stroke-width:0.708661;stroke-linecap:round;stroke-linejoin:round;stroke:rgb(18.431373%,30.980392%,30.980392%);stroke-opacity:1;stroke-miterlimit:10;" d="M 437.363281 492.222656 C 437.363281 497.132812 433.382812 501.109375 428.472656 501.109375 C 423.5625 501.109375 419.582031 497.132812 419.582031 492.222656 C 419.582031 487.3125 423.5625 483.332031 428.472656 483.332031 C 433.382812 483.332031 437.363281 487.3125 437.363281 492.222656 "/>
<path style="fill-rule:nonzero;fill:rgb(18.431373%,30.980392%,30.980392%);fill-opacity:1;stroke-width:0.708661;stroke-linecap:round;stroke-linejoin:round;stroke:rgb(18.431373%,30.980392%,30.980392%);stroke-opacity:1;stroke-miterlimit:10;" d="M 489.449219 492.222656 C 489.449219 497.132812 485.472656 501.109375 480.5625 501.109375 C 475.652344 501.109375 471.671875 497.132812 471.671875 492.222656 C 471.671875 487.3125 475.652344 483.332031 480.5625 483.332031 C 485.472656 483.332031 489.449219 487.3125 489.449219 492.222656 "/>
<path style="fill-rule:nonzero;fill:rgb(18.431373%,30.980392%,30.980392%);fill-opacity:1;stroke-width:0.708661;stroke-linecap:round;stroke-linejoin:round;stroke:rgb(18.431373%,30.980392%,30.980392%);stroke-opacity:1;stroke-miterlimit:10;" d="M 20.667969 440.132812 C 20.667969 445.042969 16.6875 449.023438 11.777344 449.023438 C 6.867188 449.023438 2.890625 445.042969 2.890625 440.132812 C 2.890625 435.222656 6.867188 431.242188 11.777344 431.242188 C 16.6875 431.242188 20.667969 435.222656 20.667969 440.132812 "/>
<path style="fill-rule:nonzero;fill:rgb(18.431373%,30.980392%,30.980392%);fill-opacity:1;stroke-width:0.708661;stroke-linecap:round;stroke-linejoin:round;stroke:rgb(18.431373%,30.980392%,30.980392%);stroke-opacity:1;stroke-miterlimit:10;" d="M 72.757812 440.132812 C 72.757812 445.042969 68.777344 449.023438 63.867188 449.023438 C 58.957031 449.023438 54.976562 445.042969 54.976562 440.132812 C 54.976562 435.222656 58.957031 431.242188 63.867188 431.242188 C 68.777344 431.242188 72.757812 435.222656 72.757812 440.132812 "/>
<path style="fill-rule:nonzero;fill:rgb(18.431373%,30.980392%,30.980392%);fill-opacity:1;stroke-width:0.708661;stroke-linecap:round;stroke-linejoin:round;stroke:rgb(18.431373%,30.980392%,30.980392%);stroke-opacity:1;stroke-miterlimit:10;" d="M 124.84375 440.132812 C 124.84375 445.042969 120.863281 449.023438 115.953125 449.023438 C 111.042969 449.023438 107.0625 445.042969 107.0625 440.132812 C 107.0625 435.222656 111.042969 431.242188 115.953125 431.242188 C 120.863281 431.242188 124.84375 435.222656 124.84375 440.132812 "/>
<path style="fill-rule:nonzero;fill:rgb(18.431373%,30.980392%,30.980392%);fill-opacity:1;stroke-width:0.708661;stroke-linecap:round;stroke-linejoin:round;stroke:rgb(18.431373%,30.980392%,30.980392%);stroke-opacity:1;stroke-miterlimit:10;" d="M 176.929688 440.132812 C 176.929688 445.042969 172.949219 449.023438 168.039062 449.023438 C 163.128906 449.023438 159.148438 445.042969 159.148438 440.132812 C 159.148438 435.222656 163.128906 431.242188 168.039062 431.242188 C 172.949219 431.242188 176.929688 435.222656 176.929688 440.132812 "/>
<path style="fill-rule:nonzero;fill:rgb(18.431373%,30.980392%,30.980392%);fill-opacity:1;stroke-width:0.708661;stroke-linecap:round;stroke-linejoin:round;stroke:rgb(18.431373%,30.980392%,30.980392%);stroke-opacity:1;stroke-miterlimit:10;" d="M 229.015625 440.132812 C 229.015625 445.042969 225.035156 449.023438 220.125 449.023438 C 215.214844 449.023438 211.234375 445.042969 211.234375 440.132812 C 211.234375 435.222656 215.214844 431.242188 220.125 431.242188 C 225.035156 431.242188 229.015625 435.222656 229.015625 440.132812 "/>
<path style="fill-rule:nonzero;fill:rgb(18.431373%,30.980392%,30.980392%);fill-opacity:1;stroke-width:0.708661;stroke-linecap:round;stroke-linejoin:round;stroke:rgb(18.431373%,30.980392%,30.980392%);stroke-opacity:1;stroke-miterlimit:10;" d="M 281.101562 440.132812 C 281.101562 445.042969 277.125 449.023438 272.214844 449.023438 C 267.304688 449.023438 263.324219 445.042969 263.324219 440.132812 C 263.324219 435.222656 267.304688 431.242188 272.214844 431.242188 C 277.125 431.242188 281.101562 435.222656 281.101562 440.132812 "/>
<path style="fill-rule:nonzero;fill:rgb(18.431373%,30.980392%,30.980392%);fill-opacity:1;stroke-width:0.708661;stroke-linecap:round;stroke-linejoin:round;stroke:rgb(18.431373%,30.980392%,30.980392%);stroke-opacity:1;stroke-miterlimit:10;" d="M 333.191406 440.132812 C 333.191406 445.042969 329.210938 449.023438 324.300781 449.023438 C 319.390625 449.023438 315.410156 445.042969 315.410156 440.132812 C 315.410156 435.222656 319.390625 431.242188 324.300781 431.242188 C 329.210938 431.242188 333.191406 435.222656 333.191406 440.132812 "/>
<path style="fill-rule:nonzero;fill:rgb(18.431373%,30.980392%,30.980392%);fill-opacity:1;stroke-width:0.708661;stroke-linecap:round;stroke-linejoin:round;stroke:rgb(18.431373%,30.980392%,30.980392%);stroke-opacity:1;stroke-miterlimit:10;" d="M 385.277344 440.132812 C 385.277344 445.042969 381.296875 449.023438 376.386719 449.023438 C 371.476562 449.023438 367.496094 445.042969 367.496094 440.132812 C 367.496094 435.222656 371.476562 431.242188 376.386719 431.242188 C 381.296875 431.242188 385.277344 435.222656 385.277344 440.132812 "/>
<path style="fill-rule:nonzero;fill:rgb(18.431373%,30.980392%,30.980392%);fill-opacity:1;stroke-width:0.708661;stroke-linecap:round;stroke-linejoin:round;stroke:rgb(18.431373%,30.980392%,30.980392%);stroke-opacity:1;stroke-miterlimit:10;" d="M 437.363281 440.132812 C 437.363281 445.042969 433.382812 449.023438 428.472656 449.023438 C 423.5625 449.023438 419.582031 445.042969 419.582031 440.132812 C 419.582031 435.222656 423.5625 431.242188 428.472656 431.242188 C 433.382812 431.242188 437.363281 435.222656 437.363281 440.132812 "/>
<path style="fill-rule:nonzero;fill:rgb(18.431373%,30.980392%,30.980392%);fill-opacity:1;stroke-width:0.708661;stroke-linecap:round;stroke-linejoin:round;stroke:rgb(18.431373%,30.980392%,30.980392%);stroke-opacity:1;stroke-miterlimit:10;" d="M 489.449219 440.132812 C 489.449219 445.042969 485.472656 449.023438 480.5625 449.023438 C 475.652344 449.023438 471.671875 445.042969 471.671875 440.132812 C 471.671875 435.222656 475.652344 431.242188 480.5625 431.242188 C 485.472656 431.242188 489.449219 435.222656 489.449219 440.132812 "/>
<path style="fill-rule:nonzero;fill:rgb(18.431373%,30.980392%,30.980392%);fill-opacity:1;stroke-width:0.708661;stroke-linecap:round;stroke-linejoin:round;stroke:rgb(18.431373%,30.980392%,30.980392%);stroke-opacity:1;stroke-miterlimit:10;" d="M 20.667969 388.046875 C 20.667969 392.957031 16.6875 396.9375 11.777344 396.9375 C 6.867188 396.9375 2.890625 392.957031 2.890625 388.046875 C 2.890625 383.136719 6.867188 379.15625 11.777344 379.15625 C 16.6875 379.15625 20.667969 383.136719 20.667969 388.046875 "/>
<path style="fill-rule:nonzero;fill:rgb(18.431373%,30.980392%,30.980392%);fill-opacity:1;stroke-width:0.708661;stroke-linecap:round;stroke-linejoin:round;stroke:rgb(18.431373%,30.980392%,30.980392%);stroke-opacity:1;stroke-miterlimit:10;" d="M 72.757812 388.046875 C 72.757812 392.957031 68.777344 396.9375 63.867188 396.9375 C 58.957031 396.9375 54.976562 392.957031 54.976562 388.046875 C 54.976562 383.136719 58.957031 379.15625 63.867188 379.15625 C 68.777344 379.15625 72.757812 383.136719 72.757812 388.046875 "/>
<path style="fill-rule:nonzero;fill:rgb(18.431373%,30.980392%,30.980392%);fill-opacity:1;stroke-width:0.708661;stroke-linecap:round;stroke-linejoin:round;stroke:rgb(18.431373%,30.980392%,30.980392%);stroke-opacity:1;stroke-miterlimit:10;" d="M 124.84375 388.046875 C 124.84375 392.957031 120.863281 396.9375 115.953125 396.9375 C 111.042969 396.9375 107.0625 392.957031 107.0625 388.046875 C 107.0625 383.136719 111.042969 379.15625 115.953125 379.15625 C 120.863281 379.15625 124.84375 383.136719 124.84375 388.046875 "/>
<path style="fill-rule:nonzero;fill:rgb(18.431373%,30.980392%,30.980392%);fill-opacity:1;stroke-width:0.708661;stroke-linecap:round;stroke-linejoin:round;stroke:rgb(18.431373%,30.980392%,30.980392%);stroke-opacity:1;stroke-miterlimit:10;" d="M 176.929688 388.046875 C 176.929688 392.957031 172.949219 396.9375 168.039062 396.9375 C 163.128906 396.9375 159.148438 392.957031 159.148438 388.046875 C 159.148438 383.136719 163.128906 379.15625 168.039062 379.15625 C 172.949219 379.15625 176.929688 383.136719 176.929688 388.046875 "/>
<path style="fill-rule:nonzero;fill:rgb(18.431373%,30.980392%,30.980392%);fill-opacity:1;stroke-width:0.708661;stroke-linecap:round;stroke-linejoin:round;stroke:rgb(18.431373%,30.980392%,30.980392%);stroke-opacity:1;stroke-miterlimit:10;" d="M 229.015625 388.046875 C 229.015625 392.957031 225.035156 396.9375 220.125 396.9375 C 215.214844 396.9375 211.234375 392.957031 211.234375 388.046875 C 211.234375 383.136719 215.214844 379.15625 220.125 379.15625 C 225.035156 379.15625 229.015625 383.136719 229.015625 388.046875 "/>
<path style="fill-rule:nonzero;fill:rgb(18.431373%,30.980392%,30.980392%);fill-opacity:1;stroke-width:0.708661;stroke-linecap:round;stroke-linejoin:round;stroke:rgb(18.431373%,30.980392%,30.980392%);stroke-opacity:1;stroke-miterlimit:10;" d="M 281.101562 388.046875 C 281.101562 392.957031 277.125 396.9375 272.214844 396.9375 C 267.304688 396.9375 263.324219 392.957031 263.324219 388.046875 C 263.324219 383.136719 267.304688 379.15625 272.214844 379.15625 C 277.125 379.15625 281.101562 383.136719 281.101562 388.046875 "/>
<path style="fill-rule:nonzero;fill:rgb(18.431373%,30.980392%,30.980392%);fill-opacity:1;stroke-width:0.708661;stroke-linecap:round;stroke-linejoin:round;stroke:rgb(18.431373%,30.980392%,30.980392%);stroke-opacity:1;stroke-miterlimit:10;" d="M 333.191406 388.046875 C 333.191406 392.957031 329.210938 396.9375 324.300781 396.9375 C 319.390625 396.9375 315.410156 392.957031 315.410156 388.046875 C 315.410156 383.136719 319.390625 379.15625 324.300781 379.15625 C 329.210938 379.15625 333.191406 383.136719 333.191406 388.046875 "/>
<path style="fill-rule:nonzero;fill:rgb(18.431373%,30.980392%,30.980392%);fill-opacity:1;stroke-width:0.708661;stroke-linecap:round;stroke-linejoin:round;stroke:rgb(18.431373%,30.980392%,30.980392%);stroke-opacity:1;stroke-miterlimit:10;" d="M 385.277344 388.046875 C 385.277344 392.957031 381.296875 396.9375 376.386719 396.9375 C 371.476562 396.9375 367.496094 392.957031 367.496094 388.046875 C 367.496094 383.136719 371.476562 379.15625 376.386719 379.15625 C 381.296875 379.15625 385.277344 383.136719 385.277344 388.046875 "/>
<path style="fill-rule:nonzero;fill:rgb(18.431373%,30.980392%,30.980392%);fill-opacity:1;stroke-width:0.708661;stroke-linecap:round;stroke-linejoin:round;stroke:rgb(18.431373%,30.980392%,30.980392%);stroke-opacity:1;stroke-miterlimit:10;" d="M 437.363281 388.046875 C 437.363281 392.957031 433.382812 396.9375 428.472656 396.9375 C 423.5625 396.9375 419.582031 392.957031 419.582031 388.046875 C 419.582031 383.136719 423.5625 379.15625 428.472656 379.15625 C 433.382812 379.15625 437.363281 383.136719 437.363281 388.046875 "/>
<path style="fill-rule:nonzero;fill:rgb(18.431373%,30.980392%,30.980392%);fill-opacity:1;stroke-width:0.708661;stroke-linecap:round;stroke-linejoin:round;stroke:rgb(18.431373%,30.980392%,30.980392%);stroke-opacity:1;stroke-miterlimit:10;" d="M 489.449219 388.046875 C 489.449219 392.957031 485.472656 396.9375 480.5625 396.9375 C 475.652344 396.9375 471.671875 392.957031 471.671875 388.046875 C 471.671875 383.136719 475.652344 379.15625 480.5625 379.15625 C 485.472656 379.15625 489.449219 383.136719 489.449219 388.046875 "/>
<path style="fill-rule:nonzero;fill:rgb(18.431373%,30.980392%,30.980392%);fill-opacity:1;stroke-width:0.708661;stroke-linecap:round;stroke-linejoin:round;stroke:rgb(18.431373%,30.980392%,30.980392%);stroke-opacity:1;stroke-miterlimit:10;" d="M 20.667969 335.960938 C 20.667969 340.871094 16.6875 344.851562 11.777344 344.851562 C 6.867188 344.851562 2.890625 340.871094 2.890625 335.960938 C 2.890625 331.050781 6.867188 327.070312 11.777344 327.070312 C 16.6875 327.070312 20.667969 331.050781 20.667969 335.960938 "/>
<path style="fill-rule:nonzero;fill:rgb(18.431373%,30.980392%,30.980392%);fill-opacity:1;stroke-width:0.708661;stroke-linecap:round;stroke-linejoin:round;stroke:rgb(18.431373%,30.980392%,30.980392%);stroke-opacity:1;stroke-miterlimit:10;" d="M 72.757812 335.960938 C 72.757812 340.871094 68.777344 344.851562 63.867188 344.851562 C 58.957031 344.851562 54.976562 340.871094 54.976562 335.960938 C 54.976562 331.050781 58.957031 327.070312 63.867188 327.070312 C 68.777344 327.070312 72.757812 331.050781 72.757812 335.960938 "/>
<path style="fill-rule:nonzero;fill:rgb(18.431373%,30.980392%,30.980392%);fill-opacity:1;stroke-width:0.708661;stroke-linecap:round;stroke-linejoin:round;stroke:rgb(18.431373%,30.980392%,30.980392%);stroke-opacity:1;stroke-miterlimit:10;" d="M 124.84375 335.960938 C 124.84375 340.871094 120.863281 344.851562 115.953125 344.851562 C 111.042969 344.851562 107.0625 340.871094 107.0625 335.960938 C 107.0625 331.050781 111.042969 327.070312 115.953125 327.070312 C 120.863281 327.070312 124.84375 331.050781 124.84375 335.960938 "/>
<path style="fill-rule:nonzero;fill:rgb(18.431373%,30.980392%,30.980392%);fill-opacity:1;stroke-width:0.708661;stroke-linecap:round;stroke-linejoin:round;stroke:rgb(18.431373%,30.980392%,30.980392%);stroke-opacity:1;stroke-miterlimit:10;" d="M 176.929688 335.960938 C 176.929688 340.871094 172.949219 344.851562 168.039062 344.851562 C 163.128906 344.851562 159.148438 340.871094 159.148438 335.960938 C 159.148438 331.050781 163.128906 327.070312 168.039062 327.070312 C 172.949219 327.070312 176.929688 331.050781 176.929688 335.960938 "/>
<path style="fill-rule:nonzero;fill:rgb(18.431373%,30.980392%,30.980392%);fill-opacity:1;stroke-width:0.708661;stroke-linecap:round;stroke-linejoin:round;stroke:rgb(18.431373%,30.980392%,30.980392%);stroke-opacity:1;stroke-miterlimit:10;" d="M 229.015625 335.960938 C 229.015625 340.871094 225.035156 344.851562 220.125 344.851562 C 215.214844 344.851562 211.234375 340.871094 211.234375 335.960938 C 211.234375 331.050781 215.214844 327.070312 220.125 327.070312 C 225.035156 327.070312 229.015625 331.050781 229.015625 335.960938 "/>
<path style="fill-rule:nonzero;fill:rgb(18.431373%,30.980392%,30.980392%);fill-opacity:1;stroke-width:0.708661;stroke-linecap:round;stroke-linejoin:round;stroke:rgb(18.431373%,30.980392%,30.980392%);stroke-opacity:1;stroke-miterlimit:10;" d="M 281.101562 335.960938 C 281.101562 340.871094 277.125 344.851562 272.214844 344.851562 C 267.304688 344.851562 263.324219 340.871094 263.324219 335.960938 C 263.324219 331.050781 267.304688 327.070312 272.214844 327.070312 C 277.125 327.070312 281.101562 331.050781 281.101562 335.960938 "/>
<path style="fill-rule:nonzero;fill:rgb(18.431373%,30.980392%,30.980392%);fill-opacity:1;stroke-width:0.708661;stroke-linecap:round;stroke-linejoin:round;stroke:rgb(18.431373%,30.980392%,30.980392%);stroke-opacity:1;stroke-miterlimit:10;" d="M 333.191406 335.960938 C 333.191406 340.871094 329.210938 344.851562 324.300781 344.851562 C 319.390625 344.851562 315.410156 340.871094 315.410156 335.960938 C 315.410156 331.050781 319.390625 327.070312 324.300781 327.070312 C 329.210938 327.070312 333.191406 331.050781 333.191406 335.960938 "/>
<path style="fill-rule:nonzero;fill:rgb(18.431373%,30.980392%,30.980392%);fill-opacity:1;stroke-width:0.708661;stroke-linecap:round;stroke-linejoin:round;stroke:rgb(18.431373%,30.980392%,30.980392%);stroke-opacity:1;stroke-miterlimit:10;" d="M 385.277344 335.960938 C 385.277344 340.871094 381.296875 344.851562 376.386719 344.851562 C 371.476562 344.851562 367.496094 340.871094 367.496094 335.960938 C 367.496094 331.050781 371.476562 327.070312 376.386719 327.070312 C 381.296875 327.070312 385.277344 331.050781 385.277344 335.960938 "/>
<path style="fill-rule:nonzero;fill:rgb(18.431373%,30.980392%,30.980392%);fill-opacity:1;stroke-width:0.708661;stroke-linecap:round;stroke-linejoin:round;stroke:rgb(18.431373%,30.980392%,30.980392%);stroke-opacity:1;stroke-miterlimit:10;" d="M 437.363281 335.960938 C 437.363281 340.871094 433.382812 344.851562 428.472656 344.851562 C 423.5625 344.851562 419.582031 340.871094 419.582031 335.960938 C 419.582031 331.050781 423.5625 327.070312 428.472656 327.070312 C 433.382812 327.070312 437.363281 331.050781 437.363281 335.960938 "/>
<path style="fill-rule:nonzero;fill:rgb(18.431373%,30.980392%,30.980392%);fill-opacity:1;stroke-width:0.708661;stroke-linecap:round;stroke-linejoin:round;stroke:rgb(18.431373%,30.980392%,30.980392%);stroke-opacity:1;stroke-miterlimit:10;" d="M 489.449219 335.960938 C 489.449219 340.871094 485.472656 344.851562 480.5625 344.851562 C 475.652344 344.851562 471.671875 340.871094 471.671875 335.960938 C 471.671875 331.050781 475.652344 327.070312 480.5625 327.070312 C 485.472656 327.070312 489.449219 331.050781 489.449219 335.960938 "/>
<path style="fill-rule:nonzero;fill:rgb(18.431373%,30.980392%,30.980392%);fill-opacity:1;stroke-width:0.708661;stroke-linecap:round;stroke-linejoin:round;stroke:rgb(18.431373%,30.980392%,30.980392%);stroke-opacity:1;stroke-miterlimit:10;" d="M 20.667969 283.875 C 20.667969 288.785156 16.6875 292.765625 11.777344 292.765625 C 6.867188 292.765625 2.890625 288.785156 2.890625 283.875 C 2.890625 278.964844 6.867188 274.984375 11.777344 274.984375 C 16.6875 274.984375 20.667969 278.964844 20.667969 283.875 "/>
<path style="fill-rule:nonzero;fill:rgb(18.431373%,30.980392%,30.980392%);fill-opacity:1;stroke-width:0.708661;stroke-linecap:round;stroke-linejoin:round;stroke:rgb(18.431373%,30.980392%,30.980392%);stroke-opacity:1;stroke-miterlimit:10;" d="M 72.757812 283.875 C 72.757812 288.785156 68.777344 292.765625 63.867188 292.765625 C 58.957031 292.765625 54.976562 288.785156 54.976562 283.875 C 54.976562 278.964844 58.957031 274.984375 63.867188 274.984375 C 68.777344 274.984375 72.757812 278.964844 72.757812 283.875 "/>
<path style="fill-rule:nonzero;fill:rgb(18.431373%,30.980392%,30.980392%);fill-opacity:1;stroke-width:0.708661;stroke-linecap:round;stroke-linejoin:round;stroke:rgb(18.431373%,30.980392%,30.980392%);stroke-opacity:1;stroke-miterlimit:10;" d="M 124.84375 283.875 C 124.84375 288.785156 120.863281 292.765625 115.953125 292.765625 C 111.042969 292.765625 107.0625 288.785156 107.0625 283.875 C 107.0625 278.964844 111.042969 274.984375 115.953125 274.984375 C 120.863281 274.984375 124.84375 278.964844 124.84375 283.875 "/>
<path style="fill-rule:nonzero;fill:rgb(18.431373%,30.980392%,30.980392%);fill-opacity:1;stroke-width:0.708661;stroke-linecap:round;stroke-linejoin:round;stroke:rgb(18.431373%,30.980392%,30.980392%);stroke-opacity:1;stroke-miterlimit:10;" d="M 176.929688 283.875 C 176.929688 288.785156 172.949219 292.765625 168.039062 292.765625 C 163.128906 292.765625 159.148438 288.785156 159.148438 283.875 C 159.148438 278.964844 163.128906 274.984375 168.039062 274.984375 C 172.949219 274.984375 176.929688 278.964844 176.929688 283.875 "/>
<path style="fill-rule:nonzero;fill:rgb(18.431373%,30.980392%,30.980392%);fill-opacity:1;stroke-width:0.708661;stroke-linecap:round;stroke-linejoin:round;stroke:rgb(18.431373%,30.980392%,30.980392%);stroke-opacity:1;stroke-miterlimit:10;" d="M 229.015625 283.875 C 229.015625 288.785156 225.035156 292.765625 220.125 292.765625 C 215.214844 292.765625 211.234375 288.785156 211.234375 283.875 C 211.234375 278.964844 215.214844 274.984375 220.125 274.984375 C 225.035156 274.984375 229.015625 278.964844 229.015625 283.875 "/>
<path style="fill-rule:nonzero;fill:rgb(18.431373%,30.980392%,30.980392%);fill-opacity:1;stroke-width:0.708661;stroke-linecap:round;stroke-linejoin:round;stroke:rgb(18.431373%,30.980392%,30.980392%);stroke-opacity:1;stroke-miterlimit:10;" d="M 281.101562 283.875 C 281.101562 288.785156 277.125 292.765625 272.214844 292.765625 C 267.304688 292.765625 263.324219 288.785156 263.324219 283.875 C 263.324219 278.964844 267.304688 274.984375 272.214844 274.984375 C 277.125 274.984375 281.101562 278.964844 281.101562 283.875 "/>
<path style="fill-rule:nonzero;fill:rgb(18.431373%,30.980392%,30.980392%);fill-opacity:1;stroke-width:0.708661;stroke-linecap:round;stroke-linejoin:round;stroke:rgb(18.431373%,30.980392%,30.980392%);stroke-opacity:1;stroke-miterlimit:10;" d="M 333.191406 283.875 C 333.191406 288.785156 329.210938 292.765625 324.300781 292.765625 C 319.390625 292.765625 315.410156 288.785156 315.410156 283.875 C 315.410156 278.964844 319.390625 274.984375 324.300781 274.984375 C 329.210938 274.984375 333.191406 278.964844 333.191406 283.875 "/>
<path style="fill-rule:nonzero;fill:rgb(18.431373%,30.980392%,30.980392%);fill-opacity:1;stroke-width:0.708661;stroke-linecap:round;stroke-linejoin:round;stroke:rgb(18.431373%,30.980392%,30.980392%);stroke-opacity:1;stroke-miterlimit:10;" d="M 385.277344 283.875 C 385.277344 288.785156 381.296875 292.765625 376.386719 292.765625 C 371.476562 292.765625 367.496094 288.785156 367.496094 283.875 C 367.496094 278.964844 371.476562 274.984375 376.386719 274.984375 C 381.296875 274.984375 385.277344 278.964844 385.277344 283.875 "/>
<path style="fill-rule:nonzero;fill:rgb(18.431373%,30.980392%,30.980392%);fill-opacity:1;stroke-width:0.708661;stroke-linecap:round;stroke-linejoin:round;stroke:rgb(18.431373%,30.980392%,30.980392%);stroke-opacity:1;stroke-miterlimit:10;" d="M 437.363281 283.875 C 437.363281 288.785156 433.382812 292.765625 428.472656 292.765625 C 423.5625 292.765625 419.582031 288.785156 419.582031 283.875 C 419.582031 278.964844 423.5625 274.984375 428.472656 274.984375 C 433.382812 274.984375 437.363281 278.964844 437.363281 283.875 "/>
<path style="fill-rule:nonzero;fill:rgb(18.431373%,30.980392%,30.980392%);fill-opacity:1;stroke-width:0.708661;stroke-linecap:round;stroke-linejoin:round;stroke:rgb(18.431373%,30.980392%,30.980392%);stroke-opacity:1;stroke-miterlimit:10;" d="M 489.449219 283.875 C 489.449219 288.785156 485.472656 292.765625 480.5625 292.765625 C 475.652344 292.765625 471.671875 288.785156 471.671875 283.875 C 471.671875 278.964844 475.652344 274.984375 480.5625 274.984375 C 485.472656 274.984375 489.449219 278.964844 489.449219 283.875 "/>
<path style="fill-rule:nonzero;fill:rgb(18.431373%,30.980392%,30.980392%);fill-opacity:1;stroke-width:0.708661;stroke-linecap:round;stroke-linejoin:round;stroke:rgb(18.431373%,30.980392%,30.980392%);stroke-opacity:1;stroke-miterlimit:10;" d="M 20.667969 231.785156 C 20.667969 236.695312 16.6875 240.675781 11.777344 240.675781 C 6.867188 240.675781 2.890625 236.695312 2.890625 231.785156 C 2.890625 226.875 6.867188 222.898438 11.777344 222.898438 C 16.6875 222.898438 20.667969 226.875 20.667969 231.785156 "/>
<path style="fill-rule:nonzero;fill:rgb(18.431373%,30.980392%,30.980392%);fill-opacity:1;stroke-width:0.708661;stroke-linecap:round;stroke-linejoin:round;stroke:rgb(18.431373%,30.980392%,30.980392%);stroke-opacity:1;stroke-miterlimit:10;" d="M 72.757812 231.785156 C 72.757812 236.695312 68.777344 240.675781 63.867188 240.675781 C 58.957031 240.675781 54.976562 236.695312 54.976562 231.785156 C 54.976562 226.875 58.957031 222.898438 63.867188 222.898438 C 68.777344 222.898438 72.757812 226.875 72.757812 231.785156 "/>
<path style="fill-rule:nonzero;fill:rgb(18.431373%,30.980392%,30.980392%);fill-opacity:1;stroke-width:0.708661;stroke-linecap:round;stroke-linejoin:round;stroke:rgb(18.431373%,30.980392%,30.980392%);stroke-opacity:1;stroke-miterlimit:10;" d="M 124.84375 231.785156 C 124.84375 236.695312 120.863281 240.675781 115.953125 240.675781 C 111.042969 240.675781 107.0625 236.695312 107.0625 231.785156 C 107.0625 226.875 111.042969 222.898438 115.953125 222.898438 C 120.863281 222.898438 124.84375 226.875 124.84375 231.785156 "/>
<path style="fill-rule:nonzero;fill:rgb(18.431373%,30.980392%,30.980392%);fill-opacity:1;stroke-width:0.708661;stroke-linecap:round;stroke-linejoin:round;stroke:rgb(18.431373%,30.980392%,30.980392%);stroke-opacity:1;stroke-miterlimit:10;" d="M 176.929688 231.785156 C 176.929688 236.695312 172.949219 240.675781 168.039062 240.675781 C 163.128906 240.675781 159.148438 236.695312 159.148438 231.785156 C 159.148438 226.875 163.128906 222.898438 168.039062 222.898438 C 172.949219 222.898438 176.929688 226.875 176.929688 231.785156 "/>
<path style="fill-rule:nonzero;fill:rgb(18.431373%,30.980392%,30.980392%);fill-opacity:1;stroke-width:0.708661;stroke-linecap:round;stroke-linejoin:round;stroke:rgb(18.431373%,30.980392%,30.980392%);stroke-opacity:1;stroke-miterlimit:10;" d="M 229.015625 231.785156 C 229.015625 236.695312 225.035156 240.675781 220.125 240.675781 C 215.214844 240.675781 211.234375 236.695312 211.234375 231.785156 C 211.234375 226.875 215.214844 222.898438 220.125 222.898438 C 225.035156 222.898438 229.015625 226.875 229.015625 231.785156 "/>
<path style="fill-rule:nonzero;fill:rgb(18.431373%,30.980392%,30.980392%);fill-opacity:1;stroke-width:0.708661;stroke-linecap:round;stroke-linejoin:round;stroke:rgb(18.431373%,30.980392%,30.980392%);stroke-opacity:1;stroke-miterlimit:10;" d="M 281.101562 231.785156 C 281.101562 236.695312 277.125 240.675781 272.214844 240.675781 C 267.304688 240.675781 263.324219 236.695312 263.324219 231.785156 C 263.324219 226.875 267.304688 222.898438 272.214844 222.898438 C 277.125 222.898438 281.101562 226.875 281.101562 231.785156 "/>
<path style="fill-rule:nonzero;fill:rgb(18.431373%,30.980392%,30.980392%);fill-opacity:1;stroke-width:0.708661;stroke-linecap:round;stroke-linejoin:round;stroke:rgb(18.431373%,30.980392%,30.980392%);stroke-opacity:1;stroke-miterlimit:10;" d="M 333.191406 231.785156 C 333.191406 236.695312 329.210938 240.675781 324.300781 240.675781 C 319.390625 240.675781 315.410156 236.695312 315.410156 231.785156 C 315.410156 226.875 319.390625 222.898438 324.300781 222.898438 C 329.210938 222.898438 333.191406 226.875 333.191406 231.785156 "/>
<path style="fill-rule:nonzero;fill:rgb(18.431373%,30.980392%,30.980392%);fill-opacity:1;stroke-width:0.708661;stroke-linecap:round;stroke-linejoin:round;stroke:rgb(18.431373%,30.980392%,30.980392%);stroke-opacity:1;stroke-miterlimit:10;" d="M 385.277344 231.785156 C 385.277344 236.695312 381.296875 240.675781 376.386719 240.675781 C 371.476562 240.675781 367.496094 236.695312 367.496094 231.785156 C 367.496094 226.875 371.476562 222.898438 376.386719 222.898438 C 381.296875 222.898438 385.277344 226.875 385.277344 231.785156 "/>
<path style="fill-rule:nonzero;fill:rgb(18.431373%,30.980392%,30.980392%);fill-opacity:1;stroke-width:0.708661;stroke-linecap:round;stroke-linejoin:round;stroke:rgb(18.431373%,30.980392%,30.980392%);stroke-opacity:1;stroke-miterlimit:10;" d="M 437.363281 231.785156 C 437.363281 236.695312 433.382812 240.675781 428.472656 240.675781 C 423.5625 240.675781 419.582031 236.695312 419.582031 231.785156 C 419.582031 226.875 423.5625 222.898438 428.472656 222.898438 C 433.382812 222.898438 437.363281 226.875 437.363281 231.785156 "/>
<path style="fill-rule:nonzero;fill:rgb(18.431373%,30.980392%,30.980392%);fill-opacity:1;stroke-width:0.708661;stroke-linecap:round;stroke-linejoin:round;stroke:rgb(18.431373%,30.980392%,30.980392%);stroke-opacity:1;stroke-miterlimit:10;" d="M 489.449219 231.785156 C 489.449219 236.695312 485.472656 240.675781 480.5625 240.675781 C 475.652344 240.675781 471.671875 236.695312 471.671875 231.785156 C 471.671875 226.875 475.652344 222.898438 480.5625 222.898438 C 485.472656 222.898438 489.449219 226.875 489.449219 231.785156 "/>
<path style="fill-rule:nonzero;fill:rgb(18.431373%,30.980392%,30.980392%);fill-opacity:1;stroke-width:0.708661;stroke-linecap:round;stroke-linejoin:round;stroke:rgb(18.431373%,30.980392%,30.980392%);stroke-opacity:1;stroke-miterlimit:10;" d="M 20.667969 179.699219 C 20.667969 184.609375 16.6875 188.589844 11.777344 188.589844 C 6.867188 188.589844 2.890625 184.609375 2.890625 179.699219 C 2.890625 174.789062 6.867188 170.808594 11.777344 170.808594 C 16.6875 170.808594 20.667969 174.789062 20.667969 179.699219 "/>
<path style="fill-rule:nonzero;fill:rgb(18.431373%,30.980392%,30.980392%);fill-opacity:1;stroke-width:0.708661;stroke-linecap:round;stroke-linejoin:round;stroke:rgb(18.431373%,30.980392%,30.980392%);stroke-opacity:1;stroke-miterlimit:10;" d="M 72.757812 179.699219 C 72.757812 184.609375 68.777344 188.589844 63.867188 188.589844 C 58.957031 188.589844 54.976562 184.609375 54.976562 179.699219 C 54.976562 174.789062 58.957031 170.808594 63.867188 170.808594 C 68.777344 170.808594 72.757812 174.789062 72.757812 179.699219 "/>
<path style="fill-rule:nonzero;fill:rgb(18.431373%,30.980392%,30.980392%);fill-opacity:1;stroke-width:0.708661;stroke-linecap:round;stroke-linejoin:round;stroke:rgb(18.431373%,30.980392%,30.980392%);stroke-opacity:1;stroke-miterlimit:10;" d="M 124.84375 179.699219 C 124.84375 184.609375 120.863281 188.589844 115.953125 188.589844 C 111.042969 188.589844 107.0625 184.609375 107.0625 179.699219 C 107.0625 174.789062 111.042969 170.808594 115.953125 170.808594 C 120.863281 170.808594 124.84375 174.789062 124.84375 179.699219 "/>
<path style="fill-rule:nonzero;fill:rgb(18.431373%,30.980392%,30.980392%);fill-opacity:1;stroke-width:0.708661;stroke-linecap:round;stroke-linejoin:round;stroke:rgb(18.431373%,30.980392%,30.980392%);stroke-opacity:1;stroke-miterlimit:10;" d="M 176.929688 179.699219 C 176.929688 184.609375 172.949219 188.589844 168.039062 188.589844 C 163.128906 188.589844 159.148438 184.609375 159.148438 179.699219 C 159.148438 174.789062 163.128906 170.808594 168.039062 170.808594 C 172.949219 170.808594 176.929688 174.789062 176.929688 179.699219 "/>
<path style="fill-rule:nonzero;fill:rgb(18.431373%,30.980392%,30.980392%);fill-opacity:1;stroke-width:0.708661;stroke-linecap:round;stroke-linejoin:round;stroke:rgb(18.431373%,30.980392%,30.980392%);stroke-opacity:1;stroke-miterlimit:10;" d="M 229.015625 179.699219 C 229.015625 184.609375 225.035156 188.589844 220.125 188.589844 C 215.214844 188.589844 211.234375 184.609375 211.234375 179.699219 C 211.234375 174.789062 215.214844 170.808594 220.125 170.808594 C 225.035156 170.808594 229.015625 174.789062 229.015625 179.699219 "/>
<path style="fill-rule:nonzero;fill:rgb(18.431373%,30.980392%,30.980392%);fill-opacity:1;stroke-width:0.708661;stroke-linecap:round;stroke-linejoin:round;stroke:rgb(18.431373%,30.980392%,30.980392%);stroke-opacity:1;stroke-miterlimit:10;" d="M 281.101562 179.699219 C 281.101562 184.609375 277.125 188.589844 272.214844 188.589844 C 267.304688 188.589844 263.324219 184.609375 263.324219 179.699219 C 263.324219 174.789062 267.304688 170.808594 272.214844 170.808594 C 277.125 170.808594 281.101562 174.789062 281.101562 179.699219 "/>
<path style="fill-rule:nonzero;fill:rgb(18.431373%,30.980392%,30.980392%);fill-opacity:1;stroke-width:0.708661;stroke-linecap:round;stroke-linejoin:round;stroke:rgb(18.431373%,30.980392%,30.980392%);stroke-opacity:1;stroke-miterlimit:10;" d="M 333.191406 179.699219 C 333.191406 184.609375 329.210938 188.589844 324.300781 188.589844 C 319.390625 188.589844 315.410156 184.609375 315.410156 179.699219 C 315.410156 174.789062 319.390625 170.808594 324.300781 170.808594 C 329.210938 170.808594 333.191406 174.789062 333.191406 179.699219 "/>
<path style="fill-rule:nonzero;fill:rgb(18.431373%,30.980392%,30.980392%);fill-opacity:1;stroke-width:0.708661;stroke-linecap:round;stroke-linejoin:round;stroke:rgb(18.431373%,30.980392%,30.980392%);stroke-opacity:1;stroke-miterlimit:10;" d="M 385.277344 179.699219 C 385.277344 184.609375 381.296875 188.589844 376.386719 188.589844 C 371.476562 188.589844 367.496094 184.609375 367.496094 179.699219 C 367.496094 174.789062 371.476562 170.808594 376.386719 170.808594 C 381.296875 170.808594 385.277344 174.789062 385.277344 179.699219 "/>
<path style="fill-rule:nonzero;fill:rgb(18.431373%,30.980392%,30.980392%);fill-opacity:1;stroke-width:0.708661;stroke-linecap:round;stroke-linejoin:round;stroke:rgb(18.431373%,30.980392%,30.980392%);stroke-opacity:1;stroke-miterlimit:10;" d="M 437.363281 179.699219 C 437.363281 184.609375 433.382812 188.589844 428.472656 188.589844 C 423.5625 188.589844 419.582031 184.609375 419.582031 179.699219 C 419.582031 174.789062 423.5625 170.808594 428.472656 170.808594 C 433.382812 170.808594 437.363281 174.789062 437.363281 179.699219 "/>
<path style="fill-rule:nonzero;fill:rgb(18.431373%,30.980392%,30.980392%);fill-opacity:1;stroke-width:0.708661;stroke-linecap:round;stroke-linejoin:round;stroke:rgb(18.431373%,30.980392%,30.980392%);stroke-opacity:1;stroke-miterlimit:10;" d="M 489.449219 179.699219 C 489.449219 184.609375 485.472656 188.589844 480.5625 188.589844 C 475.652344 188.589844 471.671875 184.609375 471.671875 179.699219 C 471.671875 174.789062 475.652344 170.808594 480.5625 170.808594 C 485.472656 170.808594 489.449219 174.789062 489.449219 179.699219 "/>
<path style="fill-rule:nonzero;fill:rgb(18.431373%,30.980392%,30.980392%);fill-opacity:1;stroke-width:0.708661;stroke-linecap:round;stroke-linejoin:round;stroke:rgb(18.431373%,30.980392%,30.980392%);stroke-opacity:1;stroke-miterlimit:10;" d="M 20.667969 127.613281 C 20.667969 132.523438 16.6875 136.503906 11.777344 136.503906 C 6.867188 136.503906 2.890625 132.523438 2.890625 127.613281 C 2.890625 122.703125 6.867188 118.722656 11.777344 118.722656 C 16.6875 118.722656 20.667969 122.703125 20.667969 127.613281 "/>
<path style="fill-rule:nonzero;fill:rgb(18.431373%,30.980392%,30.980392%);fill-opacity:1;stroke-width:0.708661;stroke-linecap:round;stroke-linejoin:round;stroke:rgb(18.431373%,30.980392%,30.980392%);stroke-opacity:1;stroke-miterlimit:10;" d="M 72.757812 127.613281 C 72.757812 132.523438 68.777344 136.503906 63.867188 136.503906 C 58.957031 136.503906 54.976562 132.523438 54.976562 127.613281 C 54.976562 122.703125 58.957031 118.722656 63.867188 118.722656 C 68.777344 118.722656 72.757812 122.703125 72.757812 127.613281 "/>
<path style="fill-rule:nonzero;fill:rgb(18.431373%,30.980392%,30.980392%);fill-opacity:1;stroke-width:0.708661;stroke-linecap:round;stroke-linejoin:round;stroke:rgb(18.431373%,30.980392%,30.980392%);stroke-opacity:1;stroke-miterlimit:10;" d="M 124.84375 127.613281 C 124.84375 132.523438 120.863281 136.503906 115.953125 136.503906 C 111.042969 136.503906 107.0625 132.523438 107.0625 127.613281 C 107.0625 122.703125 111.042969 118.722656 115.953125 118.722656 C 120.863281 118.722656 124.84375 122.703125 124.84375 127.613281 "/>
<path style="fill-rule:nonzero;fill:rgb(18.431373%,30.980392%,30.980392%);fill-opacity:1;stroke-width:0.708661;stroke-linecap:round;stroke-linejoin:round;stroke:rgb(18.431373%,30.980392%,30.980392%);stroke-opacity:1;stroke-miterlimit:10;" d="M 176.929688 127.613281 C 176.929688 132.523438 172.949219 136.503906 168.039062 136.503906 C 163.128906 136.503906 159.148438 132.523438 159.148438 127.613281 C 159.148438 122.703125 163.128906 118.722656 168.039062 118.722656 C 172.949219 118.722656 176.929688 122.703125 176.929688 127.613281 "/>
<path style="fill-rule:nonzero;fill:rgb(18.431373%,30.980392%,30.980392%);fill-opacity:1;stroke-width:0.708661;stroke-linecap:round;stroke-linejoin:round;stroke:rgb(18.431373%,30.980392%,30.980392%);stroke-opacity:1;stroke-miterlimit:10;" d="M 229.015625 127.613281 C 229.015625 132.523438 225.035156 136.503906 220.125 136.503906 C 215.214844 136.503906 211.234375 132.523438 211.234375 127.613281 C 211.234375 122.703125 215.214844 118.722656 220.125 118.722656 C 225.035156 118.722656 229.015625 122.703125 229.015625 127.613281 "/>
<path style="fill-rule:nonzero;fill:rgb(18.431373%,30.980392%,30.980392%);fill-opacity:1;stroke-width:0.708661;stroke-linecap:round;stroke-linejoin:round;stroke:rgb(18.431373%,30.980392%,30.980392%);stroke-opacity:1;stroke-miterlimit:10;" d="M 281.101562 127.613281 C 281.101562 132.523438 277.125 136.503906 272.214844 136.503906 C 267.304688 136.503906 263.324219 132.523438 263.324219 127.613281 C 263.324219 122.703125 267.304688 118.722656 272.214844 118.722656 C 277.125 118.722656 281.101562 122.703125 281.101562 127.613281 "/>
<path style="fill-rule:nonzero;fill:rgb(18.431373%,30.980392%,30.980392%);fill-opacity:1;stroke-width:0.708661;stroke-linecap:round;stroke-linejoin:round;stroke:rgb(18.431373%,30.980392%,30.980392%);stroke-opacity:1;stroke-miterlimit:10;" d="M 333.191406 127.613281 C 333.191406 132.523438 329.210938 136.503906 324.300781 136.503906 C 319.390625 136.503906 315.410156 132.523438 315.410156 127.613281 C 315.410156 122.703125 319.390625 118.722656 324.300781 118.722656 C 329.210938 118.722656 333.191406 122.703125 333.191406 127.613281 "/>
<path style="fill-rule:nonzero;fill:rgb(18.431373%,30.980392%,30.980392%);fill-opacity:1;stroke-width:0.708661;stroke-linecap:round;stroke-linejoin:round;stroke:rgb(18.431373%,30.980392%,30.980392%);stroke-opacity:1;stroke-miterlimit:10;" d="M 385.277344 127.613281 C 385.277344 132.523438 381.296875 136.503906 376.386719 136.503906 C 371.476562 136.503906 367.496094 132.523438 367.496094 127.613281 C 367.496094 122.703125 371.476562 118.722656 376.386719 118.722656 C 381.296875 118.722656 385.277344 122.703125 385.277344 127.613281 "/>
<path style="fill-rule:nonzero;fill:rgb(18.431373%,30.980392%,30.980392%);fill-opacity:1;stroke-width:0.708661;stroke-linecap:round;stroke-linejoin:round;stroke:rgb(18.431373%,30.980392%,30.980392%);stroke-opacity:1;stroke-miterlimit:10;" d="M 437.363281 127.613281 C 437.363281 132.523438 433.382812 136.503906 428.472656 136.503906 C 423.5625 136.503906 419.582031 132.523438 419.582031 127.613281 C 419.582031 122.703125 423.5625 118.722656 428.472656 118.722656 C 433.382812 118.722656 437.363281 122.703125 437.363281 127.613281 "/>
<path style="fill-rule:nonzero;fill:rgb(18.431373%,30.980392%,30.980392%);fill-opacity:1;stroke-width:0.708661;stroke-linecap:round;stroke-linejoin:round;stroke:rgb(18.431373%,30.980392%,30.980392%);stroke-opacity:1;stroke-miterlimit:10;" d="M 489.449219 127.613281 C 489.449219 132.523438 485.472656 136.503906 480.5625 136.503906 C 475.652344 136.503906 471.671875 132.523438 471.671875 127.613281 C 471.671875 122.703125 475.652344 118.722656 480.5625 118.722656 C 485.472656 118.722656 489.449219 122.703125 489.449219 127.613281 "/>
<path style="fill-rule:nonzero;fill:rgb(18.431373%,30.980392%,30.980392%);fill-opacity:1;stroke-width:0.708661;stroke-linecap:round;stroke-linejoin:round;stroke:rgb(18.431373%,30.980392%,30.980392%);stroke-opacity:1;stroke-miterlimit:10;" d="M 20.667969 75.527344 C 20.667969 80.4375 16.6875 84.417969 11.777344 84.417969 C 6.867188 84.417969 2.890625 80.4375 2.890625 75.527344 C 2.890625 70.617188 6.867188 66.636719 11.777344 66.636719 C 16.6875 66.636719 20.667969 70.617188 20.667969 75.527344 "/>
<path style="fill-rule:nonzero;fill:rgb(18.431373%,30.980392%,30.980392%);fill-opacity:1;stroke-width:0.708661;stroke-linecap:round;stroke-linejoin:round;stroke:rgb(18.431373%,30.980392%,30.980392%);stroke-opacity:1;stroke-miterlimit:10;" d="M 72.757812 75.527344 C 72.757812 80.4375 68.777344 84.417969 63.867188 84.417969 C 58.957031 84.417969 54.976562 80.4375 54.976562 75.527344 C 54.976562 70.617188 58.957031 66.636719 63.867188 66.636719 C 68.777344 66.636719 72.757812 70.617188 72.757812 75.527344 "/>
<path style="fill-rule:nonzero;fill:rgb(18.431373%,30.980392%,30.980392%);fill-opacity:1;stroke-width:0.708661;stroke-linecap:round;stroke-linejoin:round;stroke:rgb(18.431373%,30.980392%,30.980392%);stroke-opacity:1;stroke-miterlimit:10;" d="M 124.84375 75.527344 C 124.84375 80.4375 120.863281 84.417969 115.953125 84.417969 C 111.042969 84.417969 107.0625 80.4375 107.0625 75.527344 C 107.0625 70.617188 111.042969 66.636719 115.953125 66.636719 C 120.863281 66.636719 124.84375 70.617188 124.84375 75.527344 "/>
<path style="fill-rule:nonzero;fill:rgb(18.431373%,30.980392%,30.980392%);fill-opacity:1;stroke-width:0.708661;stroke-linecap:round;stroke-linejoin:round;stroke:rgb(18.431373%,30.980392%,30.980392%);stroke-opacity:1;stroke-miterlimit:10;" d="M 176.929688 75.527344 C 176.929688 80.4375 172.949219 84.417969 168.039062 84.417969 C 163.128906 84.417969 159.148438 80.4375 159.148438 75.527344 C 159.148438 70.617188 163.128906 66.636719 168.039062 66.636719 C 172.949219 66.636719 176.929688 70.617188 176.929688 75.527344 "/>
<path style="fill-rule:nonzero;fill:rgb(18.431373%,30.980392%,30.980392%);fill-opacity:1;stroke-width:0.708661;stroke-linecap:round;stroke-linejoin:round;stroke:rgb(18.431373%,30.980392%,30.980392%);stroke-opacity:1;stroke-miterlimit:10;" d="M 229.015625 75.527344 C 229.015625 80.4375 225.035156 84.417969 220.125 84.417969 C 215.214844 84.417969 211.234375 80.4375 211.234375 75.527344 C 211.234375 70.617188 215.214844 66.636719 220.125 66.636719 C 225.035156 66.636719 229.015625 70.617188 229.015625 75.527344 "/>
<path style="fill-rule:nonzero;fill:rgb(18.431373%,30.980392%,30.980392%);fill-opacity:1;stroke-width:0.708661;stroke-linecap:round;stroke-linejoin:round;stroke:rgb(18.431373%,30.980392%,30.980392%);stroke-opacity:1;stroke-miterlimit:10;" d="M 281.101562 75.527344 C 281.101562 80.4375 277.125 84.417969 272.214844 84.417969 C 267.304688 84.417969 263.324219 80.4375 263.324219 75.527344 C 263.324219 70.617188 267.304688 66.636719 272.214844 66.636719 C 277.125 66.636719 281.101562 70.617188 281.101562 75.527344 "/>
<path style="fill-rule:nonzero;fill:rgb(18.431373%,30.980392%,30.980392%);fill-opacity:1;stroke-width:0.708661;stroke-linecap:round;stroke-linejoin:round;stroke:rgb(18.431373%,30.980392%,30.980392%);stroke-opacity:1;stroke-miterlimit:10;" d="M 333.191406 75.527344 C 333.191406 80.4375 329.210938 84.417969 324.300781 84.417969 C 319.390625 84.417969 315.410156 80.4375 315.410156 75.527344 C 315.410156 70.617188 319.390625 66.636719 324.300781 66.636719 C 329.210938 66.636719 333.191406 70.617188 333.191406 75.527344 "/>
<path style="fill-rule:nonzero;fill:rgb(18.431373%,30.980392%,30.980392%);fill-opacity:1;stroke-width:0.708661;stroke-linecap:round;stroke-linejoin:round;stroke:rgb(18.431373%,30.980392%,30.980392%);stroke-opacity:1;stroke-miterlimit:10;" d="M 385.277344 75.527344 C 385.277344 80.4375 381.296875 84.417969 376.386719 84.417969 C 371.476562 84.417969 367.496094 80.4375 367.496094 75.527344 C 367.496094 70.617188 371.476562 66.636719 376.386719 66.636719 C 381.296875 66.636719 385.277344 70.617188 385.277344 75.527344 "/>
<path style="fill-rule:nonzero;fill:rgb(18.431373%,30.980392%,30.980392%);fill-opacity:1;stroke-width:0.708661;stroke-linecap:round;stroke-linejoin:round;stroke:rgb(18.431373%,30.980392%,30.980392%);stroke-opacity:1;stroke-miterlimit:10;" d="M 437.363281 75.527344 C 437.363281 80.4375 433.382812 84.417969 428.472656 84.417969 C 423.5625 84.417969 419.582031 80.4375 419.582031 75.527344 C 419.582031 70.617188 423.5625 66.636719 428.472656 66.636719 C 433.382812 66.636719 437.363281 70.617188 437.363281 75.527344 "/>
<path style="fill-rule:nonzero;fill:rgb(18.431373%,30.980392%,30.980392%);fill-opacity:1;stroke-width:0.708661;stroke-linecap:round;stroke-linejoin:round;stroke:rgb(18.431373%,30.980392%,30.980392%);stroke-opacity:1;stroke-miterlimit:10;" d="M 489.449219 75.527344 C 489.449219 80.4375 485.472656 84.417969 480.5625 84.417969 C 475.652344 84.417969 471.671875 80.4375 471.671875 75.527344 C 471.671875 70.617188 475.652344 66.636719 480.5625 66.636719 C 485.472656 66.636719 489.449219 70.617188 489.449219 75.527344 "/>
<path style="fill-rule:nonzero;fill:rgb(18.431373%,30.980392%,30.980392%);fill-opacity:1;stroke-width:0.708661;stroke-linecap:round;stroke-linejoin:round;stroke:rgb(18.431373%,30.980392%,30.980392%);stroke-opacity:1;stroke-miterlimit:10;" d="M 20.667969 23.4375 C 20.667969 28.347656 16.6875 32.328125 11.777344 32.328125 C 6.867188 32.328125 2.890625 28.347656 2.890625 23.4375 C 2.890625 18.527344 6.867188 14.550781 11.777344 14.550781 C 16.6875 14.550781 20.667969 18.527344 20.667969 23.4375 "/>
<path style="fill-rule:nonzero;fill:rgb(18.431373%,30.980392%,30.980392%);fill-opacity:1;stroke-width:0.708661;stroke-linecap:round;stroke-linejoin:round;stroke:rgb(18.431373%,30.980392%,30.980392%);stroke-opacity:1;stroke-miterlimit:10;" d="M 72.757812 23.4375 C 72.757812 28.347656 68.777344 32.328125 63.867188 32.328125 C 58.957031 32.328125 54.976562 28.347656 54.976562 23.4375 C 54.976562 18.527344 58.957031 14.550781 63.867188 14.550781 C 68.777344 14.550781 72.757812 18.527344 72.757812 23.4375 "/>
<path style="fill-rule:nonzero;fill:rgb(18.431373%,30.980392%,30.980392%);fill-opacity:1;stroke-width:0.708661;stroke-linecap:round;stroke-linejoin:round;stroke:rgb(18.431373%,30.980392%,30.980392%);stroke-opacity:1;stroke-miterlimit:10;" d="M 124.84375 23.4375 C 124.84375 28.347656 120.863281 32.328125 115.953125 32.328125 C 111.042969 32.328125 107.0625 28.347656 107.0625 23.4375 C 107.0625 18.527344 111.042969 14.550781 115.953125 14.550781 C 120.863281 14.550781 124.84375 18.527344 124.84375 23.4375 "/>
<path style="fill-rule:nonzero;fill:rgb(18.431373%,30.980392%,30.980392%);fill-opacity:1;stroke-width:0.708661;stroke-linecap:round;stroke-linejoin:round;stroke:rgb(18.431373%,30.980392%,30.980392%);stroke-opacity:1;stroke-miterlimit:10;" d="M 176.929688 23.4375 C 176.929688 28.347656 172.949219 32.328125 168.039062 32.328125 C 163.128906 32.328125 159.148438 28.347656 159.148438 23.4375 C 159.148438 18.527344 163.128906 14.550781 168.039062 14.550781 C 172.949219 14.550781 176.929688 18.527344 176.929688 23.4375 "/>
<path style="fill-rule:nonzero;fill:rgb(18.431373%,30.980392%,30.980392%);fill-opacity:1;stroke-width:0.708661;stroke-linecap:round;stroke-linejoin:round;stroke:rgb(18.431373%,30.980392%,30.980392%);stroke-opacity:1;stroke-miterlimit:10;" d="M 229.015625 23.4375 C 229.015625 28.347656 225.035156 32.328125 220.125 32.328125 C 215.214844 32.328125 211.234375 28.347656 211.234375 23.4375 C 211.234375 18.527344 215.214844 14.550781 220.125 14.550781 C 225.035156 14.550781 229.015625 18.527344 229.015625 23.4375 "/>
<path style="fill-rule:nonzero;fill:rgb(18.431373%,30.980392%,30.980392%);fill-opacity:1;stroke-width:0.708661;stroke-linecap:round;stroke-linejoin:round;stroke:rgb(18.431373%,30.980392%,30.980392%);stroke-opacity:1;stroke-miterlimit:10;" d="M 281.101562 23.4375 C 281.101562 28.347656 277.125 32.328125 272.214844 32.328125 C 267.304688 32.328125 263.324219 28.347656 263.324219 23.4375 C 263.324219 18.527344 267.304688 14.550781 272.214844 14.550781 C 277.125 14.550781 281.101562 18.527344 281.101562 23.4375 "/>
<path style="fill-rule:nonzero;fill:rgb(18.431373%,30.980392%,30.980392%);fill-opacity:1;stroke-width:0.708661;stroke-linecap:round;stroke-linejoin:round;stroke:rgb(18.431373%,30.980392%,30.980392%);stroke-opacity:1;stroke-miterlimit:10;" d="M 333.191406 23.4375 C 333.191406 28.347656 329.210938 32.328125 324.300781 32.328125 C 319.390625 32.328125 315.410156 28.347656 315.410156 23.4375 C 315.410156 18.527344 319.390625 14.550781 324.300781 14.550781 C 329.210938 14.550781 333.191406 18.527344 333.191406 23.4375 "/>
<path style="fill-rule:nonzero;fill:rgb(18.431373%,30.980392%,30.980392%);fill-opacity:1;stroke-width:0.708661;stroke-linecap:round;stroke-linejoin:round;stroke:rgb(18.431373%,30.980392%,30.980392%);stroke-opacity:1;stroke-miterlimit:10;" d="M 385.277344 23.4375 C 385.277344 28.347656 381.296875 32.328125 376.386719 32.328125 C 371.476562 32.328125 367.496094 28.347656 367.496094 23.4375 C 367.496094 18.527344 371.476562 14.550781 376.386719 14.550781 C 381.296875 14.550781 385.277344 18.527344 385.277344 23.4375 "/>
<path style="fill-rule:nonzero;fill:rgb(18.431373%,30.980392%,30.980392%);fill-opacity:1;stroke-width:0.708661;stroke-linecap:round;stroke-linejoin:round;stroke:rgb(18.431373%,30.980392%,30.980392%);stroke-opacity:1;stroke-miterlimit:10;" d="M 437.363281 23.4375 C 437.363281 28.347656 433.382812 32.328125 428.472656 32.328125 C 423.5625 32.328125 419.582031 28.347656 419.582031 23.4375 C 419.582031 18.527344 423.5625 14.550781 428.472656 14.550781 C 433.382812 14.550781 437.363281 18.527344 437.363281 23.4375 "/>
<path style="fill-rule:nonzero;fill:rgb(18.431373%,30.980392%,30.980392%);fill-opacity:1;stroke-width:0.708661;stroke-linecap:round;stroke-linejoin:round;stroke:rgb(18.431373%,30.980392%,30.980392%);stroke-opacity:1;stroke-miterlimit:10;" d="M 489.449219 23.4375 C 489.449219 28.347656 485.472656 32.328125 480.5625 32.328125 C 475.652344 32.328125 471.671875 28.347656 471.671875 23.4375 C 471.671875 18.527344 475.652344 14.550781 480.5625 14.550781 C 485.472656 14.550781 489.449219 18.527344 489.449219 23.4375 "/>
</g>
</svg>
