<?xml version="1.0" encoding="UTF-8"?>
<svg xmlns="http://www.w3.org/2000/svg" xmlns:xlink="http://www.w3.org/1999/xlink" width="504pt" height="504pt" viewBox="0 0 504 504" version="1.1">
<g id="surface966">
<rect x="0" y="0" width="504" height="504" style="fill:rgb(100%,100%,100%);fill-opacity:1;stroke:none;"/>
<path style="fill:none;stroke-width:0.708661;stroke-linecap:round;stroke-linejoin:round;stroke:rgb(18.431373%,30.980392%,30.980392%);stroke-opacity:1;stroke-miterlimit:10;" d="M 22.804688 492.222656 C 22.804688 498.308594 17.867188 503.246094 11.777344 503.246094 C 5.691406 503.246094 0.753906 498.308594 0.753906 492.222656 C 0.753906 486.132812 5.691406 481.195312 11.777344 481.195312 C 17.867188 481.195312 22.804688 486.132812 22.804688 492.222656 "/>
<path style="fill-rule:nonzero;fill:rgb(18.431373%,30.980392%,30.980392%);fill-opacity:1;stroke-width:0.708661;stroke-linecap:round;stroke-linejoin:round;stroke:rgb(18.431373%,30.980392%,30.980392%);stroke-opacity:1;stroke-miterlimit:10;" d="M 74.890625 492.222656 C 74.890625 498.308594 69.953125 503.246094 63.867188 503.246094 C 57.777344 503.246094 52.839844 498.308594 52.839844 492.222656 C 52.839844 486.132812 57.777344 481.195312 63.867188 481.195312 C 69.953125 481.195312 74.890625 486.132812 74.890625 492.222656 "/>
<path style="fill:none;stroke-width:0.708661;stroke-linecap:round;stroke-linejoin:round;stroke:rgb(18.431373%,30.980392%,30.980392%);stroke-opacity:1;stroke-miterlimit:10;" d="M 126.976562 492.222656 C 126.976562 498.308594 122.042969 503.246094 115.953125 503.246094 C 109.863281 503.246094 104.929688 498.308594 104.929688 492.222656 C 104.929688 486.132812 109.863281 481.195312 115.953125 481.195312 C 122.042969 481.195312 126.976562 486.132812 126.976562 492.222656 "/>
<path style="fill:none;stroke-width:0.708661;stroke-linecap:round;stroke-linejoin:round;stroke:rgb(18.431373%,30.980392%,30.980392%);stroke-opacity:1;stroke-miterlimit:10;" d="M 179.0625 492.222656 C 179.0625 498.308594 174.128906 503.246094 168.039062 503.246094 C 161.949219 503.246094 157.015625 498.308594 157.015625 492.222656 C 157.015625 486.132812 161.949219 481.195312 168.039062 481.195312 C 174.128906 481.195312 179.0625 486.132812 179.0625 492.222656 "/>
<path style="fill:none;stroke-width:0.708661;stroke-linecap:round;stroke-linejoin:round;stroke:rgb(18.431373%,30.980392%,30.980392%);stroke-opacity:1;stroke-miterlimit:10;" d="M 231.152344 492.222656 C 231.152344 498.308594 226.214844 503.246094 220.125 503.246094 C 214.039062 503.246094 209.101562 498.308594 209.101562 492.222656 C 209.101562 486.132812 214.039062 481.195312 220.125 481.195312 C 226.214844 481.195312 231.152344 486.132812 231.152344 492.222656 "/>
<path style="fill:none;stroke-width:0.708661;stroke-linecap:round;stroke-linejoin:round;stroke:rgb(18.431373%,30.980392%,30.980392%);stroke-opacity:1;stroke-miterlimit:10;" d="M 283.238281 492.222656 C 283.238281 498.308594 278.300781 503.246094 272.214844 503.246094 C 266.125 503.246094 261.1875 498.308594 261.1875 492.222656 C 261.1875 486.132812 266.125 481.195312 272.214844 481.195312 C 278.300781 481.195312 283.238281 486.132812 283.238281 492.222656 "/>
<path style="fill:none;stroke-width:0.708661;stroke-linecap:round;stroke-linejoin:round;stroke:rgb(18.431373%,30.980392%,30.980392%);stroke-opacity:1;stroke-miterlimit:10;" d="M 335.324219 492.222656 C 335.324219 498.308594 330.386719 503.246094 324.300781 503.246094 C 318.210938 503.246094 313.277344 498.308594 313.277344 492.222656 C 313.277344 486.132812 318.210938 481.195312 324.300781 481.195312 C 330.386719 481.195312 335.324219 486.132812 335.324219 492.222656 "/>
<path style="fill-rule:nonzero;fill:rgb(18.431373%,30.980392%,30.980392%);fill-opacity:1;stroke-width:0.708661;stroke-linecap:round;stroke-linejoin:round;stroke:rgb(18.431373%,30.980392%,30.980392%);stroke-opacity:1;stroke-miterlimit:10;" d="M 387.410156 492.222656 C 387.410156 498.308594 382.476562 503.246094 376.386719 503.246094 C 370.296875 503.246094 365.363281 498.308594 365.363281 492.222656 C 365.363281 486.132812 370.296875 481.195312 376.386719 481.195312 C 382.476562 481.195312 387.410156 486.132812 387.410156 492.222656 "/>
<path style="fill:none;stroke-width:0.708661;stroke-linecap:round;stroke-linejoin:round;stroke:rgb(18.431373%,30.980392%,30.980392%);stroke-opacity:1;stroke-miterlimit:10;" d="M 439.5 492.222656 C 439.5 498.308594 434.5625 503.246094 428.472656 503.246094 C 422.386719 503.246094 417.449219 498.308594 417.449219 492.222656 C 417.449219 486.132812 422.386719 481.195312 428.472656 481.195312 C 434.5625 481.195312 439.5 486.132812 439.5 492.222656 "/>
<path style="fill:none;stroke-width:0.708661;stroke-linecap:round;stroke-linejoin:round;stroke:rgb(18.431373%,30.980392%,30.980392%);stroke-opacity:1;stroke-miterlimit:10;" d="M 491.585938 492.222656 C 491.585938 498.308594 486.648438 503.246094 480.5625 503.246094 C 474.472656 503.246094 469.535156 498.308594 469.535156 492.222656 C 469.535156 486.132812 474.472656 481.195312 480.5625 481.195312 C 486.648438 481.195312 491.585938 486.132812 491.585938 492.222656 "/>
<path style="fill:none;stroke-width:0.708661;stroke-linecap:round;stroke-linejoin:round;stroke:rgb(18.431373%,30.980392%,30.980392%);stroke-opacity:1;stroke-miterlimit:10;" d="M 22.804688 440.132812 C 22.804688 446.222656 17.867188 451.160156 11.777344 451.160156 C 5.691406 451.160156 0.753906 446.222656 0.753906 440.132812 C 0.753906 434.046875 5.691406 429.109375 11.777344 429.109375 C 17.867188 429.109375 22.804688 434.046875 22.804688 440.132812 "/>
<path style="fill:none;stroke-width:0.708661;stroke-linecap:round;stroke-linejoin:round;stroke:rgb(18.431373%,30.980392%,30.980392%);stroke-opacity:1;stroke-miterlimit:10;" d="M 74.890625 440.132812 C 74.890625 446.222656 69.953125 451.160156 63.867188 451.160156 C 57.777344 451.160156 52.839844 446.222656 52.839844 440.132812 C 52.839844 434.046875 57.777344 429.109375 63.867188 429.109375 C 69.953125 429.109375 74.890625 434.046875 74.890625 440.132812 "/>
<path style="fill:none;stroke-width:0.708661;stroke-linecap:round;stroke-linejoin:round;stroke:rgb(18.431373%,30.980392%,30.980392%);stroke-opacity:1;stroke-miterlimit:10;" d="M 126.976562 440.132812 C 126.976562 446.222656 122.042969 451.160156 115.953125 451.160156 C 109.863281 451.160156 104.929688 446.222656 104.929688 440.132812 C 104.929688 434.046875 109.863281 429.109375 115.953125 429.109375 C 122.042969 429.109375 126.976562 434.046875 126.976562 440.132812 "/>
<path style="fill:none;stroke-width:0.708661;stroke-linecap:round;stroke-linejoin:round;stroke:rgb(18.431373%,30.980392%,30.980392%);stroke-opacity:1;stroke-miterlimit:10;" d="M 179.0625 440.132812 C 179.0625 446.222656 174.128906 451.160156 168.039062 451.160156 C 161.949219 451.160156 157.015625 446.222656 157.015625 440.132812 C 157.015625 434.046875 161.949219 429.109375 168.039062 429.109375 C 174.128906 429.109375 179.0625 434.046875 179.0625 440.132812 "/>
<path style="fill-rule:nonzero;fill:rgb(18.431373%,30.980392%,30.980392%);fill-opacity:1;stroke-width:0.708661;stroke-linecap:round;stroke-linejoin:round;stroke:rgb(18.431373%,30.980392%,30.980392%);stroke-opacity:1;stroke-miterlimit:10;" d="M 231.152344 440.132812 C 231.152344 446.222656 226.214844 451.160156 220.125 451.160156 C 214.039062 451.160156 209.101562 446.222656 209.101562 440.132812 C 209.101562 434.046875 214.039062 429.109375 220.125 429.109375 C 226.214844 429.109375 231.152344 434.046875 231.152344 440.132812 "/>
<path style="fill:none;stroke-width:0.708661;stroke-linecap:round;stroke-linejoin:round;stroke:rgb(18.431373%,30.980392%,30.980392%);stroke-opacity:1;stroke-miterlimit:10;" d="M 283.238281 440.132812 C 283.238281 446.222656 278.300781 451.160156 272.214844 451.160156 C 266.125 451.160156 261.1875 446.222656 261.1875 440.132812 C 261.1875 434.046875 266.125 429.109375 272.214844 429.109375 C 278.300781 429.109375 283.238281 434.046875 283.238281 440.132812 "/>
<path style="fill:none;stroke-width:0.708661;stroke-linecap:round;stroke-linejoin:round;stroke:rgb(18.431373%,30.980392%,30.980392%);stroke-opacity:1;stroke-miterlimit:10;" d="M 335.324219 440.132812 C 335.324219 446.222656 330.386719 451.160156 324.300781 451.160156 C 318.210938 451.160156 313.277344 446.222656 313.277344 440.132812 C 313.277344 434.046875 318.210938 429.109375 324.300781 429.109375 C 330.386719 429.109375 335.324219 434.046875 335.324219 440.132812 "/>
<path style="fill:none;stroke-width:0.708661;stroke-linecap:round;stroke-linejoin:round;stroke:rgb(18.431373%,30.980392%,30.980392%);stroke-opacity:1;stroke-miterlimit:10;" d="M 387.410156 440.132812 C 387.410156 446.222656 382.476562 451.160156 376.386719 451.160156 C 370.296875 451.160156 365.363281 446.222656 365.363281 440.132812 C 365.363281 434.046875 370.296875 429.109375 376.386719 429.109375 C 382.476562 429.109375 387.410156 434.046875 387.410156 440.132812 "/>
<path style="fill:none;stroke-width:0.708661;stroke-linecap:round;stroke-linejoin:round;stroke:rgb(18.431373%,30.980392%,30.980392%);stroke-opacity:1;stroke-miterlimit:10;" d="M 439.5 440.132812 C 439.5 446.222656 434.5625 451.160156 428.472656 451.160156 C 422.386719 451.160156 417.449219 446.222656 417.449219 440.132812 C 417.449219 434.046875 422.386719 429.109375 428.472656 429.109375 C 434.5625 429.109375 439.5 434.046875 439.5 440.132812 "/>
<path style="fill:none;stroke-width:0.708661;stroke-linecap:round;stroke-linejoin:round;stroke:rgb(18.431373%,30.980392%,30.980392%);stroke-opacity:1;stroke-miterlimit:10;" d="M 491.585938 440.132812 C 491.585938 446.222656 486.648438 451.160156 480.5625 451.160156 C 474.472656 451.160156 469.535156 446.222656 469.535156 440.132812 C 469.535156 434.046875 474.472656 429.109375 480.5625 429.109375 C 486.648438 429.109375 491.585938 434.046875 491.585938 440.132812 "/>
<path style="fill:none;stroke-width:0.708661;stroke-linecap:round;stroke-linejoin:round;stroke:rgb(18.431373%,30.980392%,30.980392%);stroke-opacity:1;stroke-miterlimit:10;" d="M 22.804688 388.046875 C 22.804688 394.136719 17.867188 399.070312 11.777344 399.070312 C 5.691406 399.070312 0.753906 394.136719 0.753906 388.046875 C 0.753906 381.957031 5.691406 377.023438 11.777344 377.023438 C 17.867188 377.023438 22.804688 381.957031 22.804688 388.046875 "/>
<path style="fill:none;stroke-width:0.708661;stroke-linecap:round;stroke-linejoin:round;stroke:rgb(18.431373%,30.980392%,30.980392%);stroke-opacity:1;stroke-miterlimit:10;" d="M 74.890625 388.046875 C 74.890625 394.136719 69.953125 399.070312 63.867188 399.070312 C 57.777344 399.070312 52.839844 394.136719 52.839844 388.046875 C 52.839844 381.957031 57.777344 377.023438 63.867188 377.023438 C 69.953125 377.023438 74.890625 381.957031 74.890625 388.046875 "/>
<path style="fill-rule:nonzero;fill:rgb(18.431373%,30.980392%,30.980392%);fill-opacity:1;stroke-width:0.708661;stroke-linecap:round;stroke-linejoin:round;stroke:rgb(18.431373%,30.980392%,30.980392%);stroke-opacity:1;stroke-miterlimit:10;" d="M 126.976562 388.046875 C 126.976562 394.136719 122.042969 399.070312 115.953125 399.070312 C 109.863281 399.070312 104.929688 394.136719 104.929688 388.046875 C 104.929688 381.957031 109.863281 377.023438 115.953125 377.023438 C 122.042969 377.023438 126.976562 381.957031 126.976562 388.046875 "/>
<path style="fill:none;stroke-width:0.708661;stroke-linecap:round;stroke-linejoin:round;stroke:rgb(18.431373%,30.980392%,30.980392%);stroke-opacity:1;stroke-miterlimit:10;" d="M 179.0625 388.046875 C 179.0625 394.136719 174.128906 399.070312 168.039062 399.070312 C 161.949219 399.070312 157.015625 394.136719 157.015625 388.046875 C 157.015625 381.957031 161.949219 377.023438 168.039062 377.023438 C 174.128906 377.023438 179.0625 381.957031 179.0625 388.046875 "/>
<path style="fill:none;stroke-width:0.708661;stroke-linecap:round;stroke-linejoin:round;stroke:rgb(18.431373%,30.980392%,30.980392%);stroke-opacity:1;stroke-miterlimit:10;" d="M 231.152344 388.046875 C 231.152344 394.136719 226.214844 399.070312 220.125 399.070312 C 214.039062 399.070312 209.101562 394.136719 209.101562 388.046875 C 209.101562 381.957031 214.039062 377.023438 220.125 377.023438 C 226.214844 377.023438 231.152344 381.957031 231.152344 388.046875 "/>
<path style="fill-rule:nonzero;fill:rgb(18.431373%,30.980392%,30.980392%);fill-opacity:1;stroke-width:0.708661;stroke-linecap:round;stroke-linejoin:round;stroke:rgb(18.431373%,30.980392%,30.980392%);stroke-opacity:1;stroke-miterlimit:10;" d="M 283.238281 388.046875 C 283.238281 394.136719 278.300781 399.070312 272.214844 399.070312 C 266.125 399.070312 261.1875 394.136719 261.1875 388.046875 C 261.1875 381.957031 266.125 377.023438 272.214844 377.023438 C 278.300781 377.023438 283.238281 381.957031 283.238281 388.046875 "/>
<path style="fill-rule:nonzero;fill:rgb(18.431373%,30.980392%,30.980392%);fill-opacity:1;stroke-width:0.708661;stroke-linecap:round;stroke-linejoin:round;stroke:rgb(18.431373%,30.980392%,30.980392%);stroke-opacity:1;stroke-miterlimit:10;" d="M 335.324219 388.046875 C 335.324219 394.136719 330.386719 399.070312 324.300781 399.070312 C 318.210938 399.070312 313.277344 394.136719 313.277344 388.046875 C 313.277344 381.957031 318.210938 377.023438 324.300781 377.023438 C 330.386719 377.023438 335.324219 381.957031 335.324219 388.046875 "/>
<path style="fill:none;stroke-width:0.708661;stroke-linecap:round;stroke-linejoin:round;stroke:rgb(18.431373%,30.980392%,30.980392%);stroke-opacity:1;stroke-miterlimit:10;" d="M 387.410156 388.046875 C 387.410156 394.136719 382.476562 399.070312 376.386719 399.070312 C 370.296875 399.070312 365.363281 394.136719 365.363281 388.046875 C 365.363281 381.957031 370.296875 377.023438 376.386719 377.023438 C 382.476562 377.023438 387.410156 381.957031 387.410156 388.046875 "/>
<path style="fill:none;stroke-width:0.708661;stroke-linecap:round;stroke-linejoin:round;stroke:rgb(18.431373%,30.980392%,30.980392%);stroke-opacity:1;stroke-miterlimit:10;" d="M 439.5 388.046875 C 439.5 394.136719 434.5625 399.070312 428.472656 399.070312 C 422.386719 399.070312 417.449219 394.136719 417.449219 388.046875 C 417.449219 381.957031 422.386719 377.023438 428.472656 377.023438 C 434.5625 377.023438 439.5 381.957031 439.5 388.046875 "/>
<path style="fill:none;stroke-width:0.708661;stroke-linecap:round;stroke-linejoin:round;stroke:rgb(18.431373%,30.980392%,30.980392%);stroke-opacity:1;stroke-miterlimit:10;" d="M 491.585938 388.046875 C 491.585938 394.136719 486.648438 399.070312 480.5625 399.070312 C 474.472656 399.070312 469.535156 394.136719 469.535156 388.046875 C 469.535156 381.957031 474.472656 377.023438 480.5625 377.023438 C 486.648438 377.023438 491.585938 381.957031 491.585938 388.046875 "/>
<path style="fill-rule:nonzero;fill:rgb(18.431373%,30.980392%,30.980392%);fill-opacity:1;stroke-width:0.708661;stroke-linecap:round;stroke-linejoin:round;stroke:rgb(18.431373%,30.980392%,30.980392%);stroke-opacity:1;stroke-miterlimit:10;" d="M 22.804688 335.960938 C 22.804688 342.050781 17.867188 346.984375 11.777344 346.984375 C 5.691406 346.984375 0.753906 342.050781 0.753906 335.960938 C 0.753906 329.871094 5.691406 324.9375 11.777344 324.9375 C 17.867188 324.9375 22.804688 329.871094 22.804688 335.960938 "/>
<path style="fill:none;stroke-width:0.708661;stroke-linecap:round;stroke-linejoin:round;stroke:rgb(18.431373%,30.980392%,30.980392%);stroke-opacity:1;stroke-miterlimit:10;" d="M 74.890625 335.960938 C 74.890625 342.050781 69.953125 346.984375 63.867188 346.984375 C 57.777344 346.984375 52.839844 342.050781 52.839844 335.960938 C 52.839844 329.871094 57.777344 324.9375 63.867188 324.9375 C 69.953125 324.9375 74.890625 329.871094 74.890625 335.960938 "/>
<path style="fill:none;stroke-width:0.708661;stroke-linecap:round;stroke-linejoin:round;stroke:rgb(18.431373%,30.980392%,30.980392%);stroke-opacity:1;stroke-miterlimit:10;" d="M 126.976562 335.960938 C 126.976562 342.050781 122.042969 346.984375 115.953125 346.984375 C 109.863281 346.984375 104.929688 342.050781 104.929688 335.960938 C 104.929688 329.871094 109.863281 324.9375 115.953125 324.9375 C 122.042969 324.9375 126.976562 329.871094 126.976562 335.960938 "/>
<path style="fill-rule:nonzero;fill:rgb(18.431373%,30.980392%,30.980392%);fill-opacity:1;stroke-width:0.708661;stroke-linecap:round;stroke-linejoin:round;stroke:rgb(18.431373%,30.980392%,30.980392%);stroke-opacity:1;stroke-miterlimit:10;" d="M 179.0625 335.960938 C 179.0625 342.050781 174.128906 346.984375 168.039062 346.984375 C 161.949219 346.984375 157.015625 342.050781 157.015625 335.960938 C 157.015625 329.871094 161.949219 324.9375 168.039062 324.9375 C 174.128906 324.9375 179.0625 329.871094 179.0625 335.960938 "/>
<path style="fill-rule:nonzero;fill:rgb(18.431373%,30.980392%,30.980392%);fill-opacity:1;stroke-width:0.708661;stroke-linecap:round;stroke-linejoin:round;stroke:rgb(18.431373%,30.980392%,30.980392%);stroke-opacity:1;stroke-miterlimit:10;" d="M 231.152344 335.960938 C 231.152344 342.050781 226.214844 346.984375 220.125 346.984375 C 214.039062 346.984375 209.101562 342.050781 209.101562 335.960938 C 209.101562 329.871094 214.039062 324.9375 220.125 324.9375 C 226.214844 324.9375 231.152344 329.871094 231.152344 335.960938 "/>
<path style="fill-rule:nonzero;fill:rgb(18.431373%,30.980392%,30.980392%);fill-opacity:1;stroke-width:0.708661;stroke-linecap:round;stroke-linejoin:round;stroke:rgb(18.431373%,30.980392%,30.980392%);stroke-opacity:1;stroke-miterlimit:10;" d="M 283.238281 335.960938 C 283.238281 342.050781 278.300781 346.984375 272.214844 346.984375 C 266.125 346.984375 261.1875 342.050781 261.1875 335.960938 C 261.1875 329.871094 266.125 324.9375 272.214844 324.9375 C 278.300781 324.9375 283.238281 329.871094 283.238281 335.960938 "/>
<path style="fill:none;stroke-width:0.708661;stroke-linecap:round;stroke-linejoin:round;stroke:rgb(18.431373%,30.980392%,30.980392%);stroke-opacity:1;stroke-miterlimit:10;" d="M 335.324219 335.960938 C 335.324219 342.050781 330.386719 346.984375 324.300781 346.984375 C 318.210938 346.984375 313.277344 342.050781 313.277344 335.960938 C 313.277344 329.871094 318.210938 324.9375 324.300781 324.9375 C 330.386719 324.9375 335.324219 329.871094 335.324219 335.960938 "/>
<path style="fill:none;stroke-width:0.708661;stroke-linecap:round;stroke-linejoin:round;stroke:rgb(18.431373%,30.980392%,30.980392%);stroke-opacity:1;stroke-miterlimit:10;" d="M 387.410156 335.960938 C 387.410156 342.050781 382.476562 346.984375 376.386719 346.984375 C 370.296875 346.984375 365.363281 342.050781 365.363281 335.960938 C 365.363281 329.871094 370.296875 324.9375 376.386719 324.9375 C 382.476562 324.9375 387.410156 329.871094 387.410156 335.960938 "/>
<path style="fill:none;stroke-width:0.708661;stroke-linecap:round;stroke-linejoin:round;stroke:rgb(18.431373%,30.980392%,30.980392%);stroke-opacity:1;stroke-miterlimit:10;" d="M 439.5 335.960938 C 439.5 342.050781 434.5625 346.984375 428.472656 346.984375 C 422.386719 346.984375 417.449219 342.050781 417.449219 335.960938 C 417.449219 329.871094 422.386719 324.9375 428.472656 324.9375 C 434.5625 324.9375 439.5 329.871094 439.5 335.960938 "/>
<path style="fill:none;stroke-width:0.708661;stroke-linecap:round;stroke-linejoin:round;stroke:rgb(18.431373%,30.980392%,30.980392%);stroke-opacity:1;stroke-miterlimit:10;" d="M 491.585938 335.960938 C 491.585938 342.050781 486.648438 346.984375 480.5625 346.984375 C 474.472656 346.984375 469.535156 342.050781 469.535156 335.960938 C 469.535156 329.871094 474.472656 324.9375 480.5625 324.9375 C 486.648438 324.9375 491.585938 329.871094 491.585938 335.960938 "/>
<path style="fill-rule:nonzero;fill:rgb(18.431373%,30.980392%,30.980392%);fill-opacity:1;stroke-width:0.708661;stroke-linecap:round;stroke-linejoin:round;stroke:rgb(18.431373%,30.980392%,30.980392%);stroke-opacity:1;stroke-miterlimit:10;" d="M 22.804688 283.875 C 22.804688 289.960938 17.867188 294.898438 11.777344 294.898438 C 5.691406 294.898438 0.753906 289.960938 0.753906 283.875 C 0.753906 277.785156 5.691406 272.847656 11.777344 272.847656 C 17.867188 272.847656 22.804688 277.785156 22.804688 283.875 "/>
<path style="fill:none;stroke-width:0.708661;stroke-linecap:round;stroke-linejoin:round;stroke:rgb(18.431373%,30.980392%,30.980392%);stroke-opacity:1;stroke-miterlimit:10;" d="M 74.890625 283.875 C 74.890625 289.960938 69.953125 294.898438 63.867188 294.898438 C 57.777344 294.898438 52.839844 289.960938 52.839844 283.875 C 52.839844 277.785156 57.777344 272.847656 63.867188 272.847656 C 69.953125 272.847656 74.890625 277.785156 74.890625 283.875 "/>
<path style="fill:none;stroke-width:0.708661;stroke-linecap:round;stroke-linejoin:round;stroke:rgb(18.431373%,30.980392%,30.980392%);stroke-opacity:1;stroke-miterlimit:10;" d="M 126.976562 283.875 C 126.976562 289.960938 122.042969 294.898438 115.953125 294.898438 C 109.863281 294.898438 104.929688 289.960938 104.929688 283.875 C 104.929688 277.785156 109.863281 272.847656 115.953125 272.847656 C 122.042969 272.847656 126.976562 277.785156 126.976562 283.875 "/>
<path style="fill-rule:nonzero;fill:rgb(18.431373%,30.980392%,30.980392%);fill-opacity:1;stroke-width:0.708661;stroke-linecap:round;stroke-linejoin:round;stroke:rgb(18.431373%,30.980392%,30.980392%);stroke-opacity:1;stroke-miterlimit:10;" d="M 179.0625 283.875 C 179.0625 289.960938 174.128906 294.898438 168.039062 294.898438 C 161.949219 294.898438 157.015625 289.960938 157.015625 283.875 C 157.015625 277.785156 161.949219 272.847656 168.039062 272.847656 C 174.128906 272.847656 179.0625 277.785156 179.0625 283.875 "/>
<path style="fill:none;stroke-width:0.708661;stroke-linecap:round;stroke-linejoin:round;stroke:rgb(18.431373%,30.980392%,30.980392%);stroke-opacity:1;stroke-miterlimit:10;" d="M 231.152344 283.875 C 231.152344 289.960938 226.214844 294.898438 220.125 294.898438 C 214.039062 294.898438 209.101562 289.960938 209.101562 283.875 C 209.101562 277.785156 214.039062 272.847656 220.125 272.847656 C 226.214844 272.847656 231.152344 277.785156 231.152344 283.875 "/>
<path style="fill:none;stroke-width:0.708661;stroke-linecap:round;stroke-linejoin:round;stroke:rgb(18.431373%,30.980392%,30.980392%);stroke-opacity:1;stroke-miterlimit:10;" d="M 283.238281 283.875 C 283.238281 289.960938 278.300781 294.898438 272.214844 294.898438 C 266.125 294.898438 261.1875 289.960938 261.1875 283.875 C 261.1875 277.785156 266.125 272.847656 272.214844 272.847656 C 278.300781 272.847656 283.238281 277.785156 283.238281 283.875 "/>
<path style="fill:none;stroke-width:0.708661;stroke-linecap:round;stroke-linejoin:round;stroke:rgb(18.431373%,30.980392%,30.980392%);stroke-opacity:1;stroke-miterlimit:10;" d="M 335.324219 283.875 C 335.324219 289.960938 330.386719 294.898438 324.300781 294.898438 C 318.210938 294.898438 313.277344 289.960938 313.277344 283.875 C 313.277344 277.785156 318.210938 272.847656 324.300781 272.847656 C 330.386719 272.847656 335.324219 277.785156 335.324219 283.875 "/>
<path style="fill:none;stroke-width:0.708661;stroke-linecap:round;stroke-linejoin:round;stroke:rgb(18.431373%,30.980392%,30.980392%);stroke-opacity:1;stroke-miterlimit:10;" d="M 387.410156 283.875 C 387.410156 289.960938 382.476562 294.898438 376.386719 294.898438 C 370.296875 294.898438 365.363281 289.960938 365.363281 283.875 C 365.363281 277.785156 370.296875 272.847656 376.386719 272.847656 C 382.476562 272.847656 387.410156 277.785156 387.410156 283.875 "/>
<path style="fill:none;stroke-width:0.708661;stroke-linecap:round;stroke-linejoin:round;stroke:rgb(18.431373%,30.980392%,30.980392%);stroke-opacity:1;stroke-miterlimit:10;" d="M 439.5 283.875 C 439.5 289.960938 434.5625 294.898438 428.472656 294.898438 C 422.386719 294.898438 417.449219 289.960938 417.449219 283.875 C 417.449219 277.785156 422.386719 272.847656 428.472656 272.847656 C 434.5625 272.847656 439.5 277.785156 439.5 283.875 "/>
<path style="fill:none;stroke-width:0.708661;stroke-linecap:round;stroke-linejoin:round;stroke:rgb(18.431373%,30.980392%,30.980392%);stroke-opacity:1;stroke-miterlimit:10;" d="M 491.585938 283.875 C 491.585938 289.960938 486.648438 294.898438 480.5625 294.898438 C 474.472656 294.898438 469.535156 289.960938 469.535156 283.875 C 469.535156 277.785156 474.472656 272.847656 480.5625 272.847656 C 486.648438 272.847656 491.585938 277.785156 491.585938 283.875 "/>
<path style="fill:none;stroke-width:0.708661;stroke-linecap:round;stroke-linejoin:round;stroke:rgb(18.431373%,30.980392%,30.980392%);stroke-opacity:1;stroke-miterlimit:10;" d="M 22.804688 231.785156 C 22.804688 237.875 17.867188 242.8125 11.777344 242.8125 C 5.691406 242.8125 0.753906 237.875 0.753906 231.785156 C 0.753906 225.699219 5.691406 220.761719 11.777344 220.761719 C 17.867188 220.761719 22.804688 225.699219 22.804688 231.785156 "/>
<path style="fill:none;stroke-width:0.708661;stroke-linecap:round;stroke-linejoin:round;stroke:rgb(18.431373%,30.980392%,30.980392%);stroke-opacity:1;stroke-miterlimit:10;" d="M 74.890625 231.785156 C 74.890625 237.875 69.953125 242.8125 63.867188 242.8125 C 57.777344 242.8125 52.839844 237.875 52.839844 231.785156 C 52.839844 225.699219 57.777344 220.761719 63.867188 220.761719 C 69.953125 220.761719 74.890625 225.699219 74.890625 231.785156 "/>
<path style="fill:none;stroke-width:0.708661;stroke-linecap:round;stroke-linejoin:round;stroke:rgb(18.431373%,30.980392%,30.980392%);stroke-opacity:1;stroke-miterlimit:10;" d="M 126.976562 231.785156 C 126.976562 237.875 122.042969 242.8125 115.953125 242.8125 C 109.863281 242.8125 104.929688 237.875 104.929688 231.785156 C 104.929688 225.699219 109.863281 220.761719 115.953125 220.761719 C 122.042969 220.761719 126.976562 225.699219 126.976562 231.785156 "/>
<path style="fill-rule:nonzero;fill:rgb(18.431373%,30.980392%,30.980392%);fill-opacity:1;stroke-width:0.708661;stroke-linecap:round;stroke-linejoin:round;stroke:rgb(18.431373%,30.980392%,30.980392%);stroke-opacity:1;stroke-miterlimit:10;" d="M 179.0625 231.785156 C 179.0625 237.875 174.128906 242.8125 168.039062 242.8125 C 161.949219 242.8125 157.015625 237.875 157.015625 231.785156 C 157.015625 225.699219 161.949219 220.761719 168.039062 220.761719 C 174.128906 220.761719 179.0625 225.699219 179.0625 231.785156 "/>
<path style="fill-rule:nonzero;fill:rgb(18.431373%,30.980392%,30.980392%);fill-opacity:1;stroke-width:0.708661;stroke-linecap:round;stroke-linejoin:round;stroke:rgb(18.431373%,30.980392%,30.980392%);stroke-opacity:1;stroke-miterlimit:10;" d="M 231.152344 231.785156 C 231.152344 237.875 226.214844 242.8125 220.125 242.8125 C 214.039062 242.8125 209.101562 237.875 209.101562 231.785156 C 209.101562 225.699219 214.039062 220.761719 220.125 220.761719 C 226.214844 220.761719 231.152344 225.699219 231.152344 231.785156 "/>
<path style="fill-rule:nonzero;fill:rgb(18.431373%,30.980392%,30.980392%);fill-opacity:1;stroke-width:0.708661;stroke-linecap:round;stroke-linejoin:round;stroke:rgb(18.431373%,30.980392%,30.980392%);stroke-opacity:1;stroke-miterlimit:10;" d="M 283.238281 231.785156 C 283.238281 237.875 278.300781 242.8125 272.214844 242.8125 C 266.125 242.8125 261.1875 237.875 261.1875 231.785156 C 261.1875 225.699219 266.125 220.761719 272.214844 220.761719 C 278.300781 220.761719 283.238281 225.699219 283.238281 231.785156 "/>
<path style="fill:none;stroke-width:0.708661;stroke-linecap:round;stroke-linejoin:round;stroke:rgb(18.431373%,30.980392%,30.980392%);stroke-opacity:1;stroke-miterlimit:10;" d="M 335.324219 231.785156 C 335.324219 237.875 330.386719 242.8125 324.300781 242.8125 C 318.210938 242.8125 313.277344 237.875 313.277344 231.785156 C 313.277344 225.699219 318.210938 220.761719 324.300781 220.761719 C 330.386719 220.761719 335.324219 225.699219 335.324219 231.785156 "/>
<path style="fill-rule:nonzero;fill:rgb(18.431373%,30.980392%,30.980392%);fill-opacity:1;stroke-width:0.708661;stroke-linecap:round;stroke-linejoin:round;stroke:rgb(18.431373%,30.980392%,30.980392%);stroke-opacity:1;stroke-miterlimit:10;" d="M 387.410156 231.785156 C 387.410156 237.875 382.476562 242.8125 376.386719 242.8125 C 370.296875 242.8125 365.363281 237.875 365.363281 231.785156 C 365.363281 225.699219 370.296875 220.761719 376.386719 220.761719 C 382.476562 220.761719 387.410156 225.699219 387.410156 231.785156 "/>
<path style="fill:none;stroke-width:0.708661;stroke-linecap:round;stroke-linejoin:round;stroke:rgb(18.431373%,30.980392%,30.980392%);stroke-opacity:1;stroke-miterlimit:10;" d="M 439.5 231.785156 C 439.5 237.875 434.5625 242.8125 428.472656 242.8125 C 422.386719 242.8125 417.449219 237.875 417.449219 231.785156 C 417.449219 225.699219 422.386719 220.761719 428.472656 220.761719 C 434.5625 220.761719 439.5 225.699219 439.5 231.785156 "/>
<path style="fill:none;stroke-width:0.708661;stroke-linecap:round;stroke-linejoin:round;stroke:rgb(18.431373%,30.980392%,30.980392%);stroke-opacity:1;stroke-miterlimit:10;" d="M 491.585938 231.785156 C 491.585938 237.875 486.648438 242.8125 480.5625 242.8125 C 474.472656 242.8125 469.535156 237.875 469.535156 231.785156 C 469.535156 225.699219 474.472656 220.761719 480.5625 220.761719 C 486.648438 220.761719 491.585938 225.699219 491.585938 231.785156 "/>
<path style="fill:none;stroke-width:0.708661;stroke-linecap:round;stroke-linejoin:round;stroke:rgb(18.431373%,30.980392%,30.980392%);stroke-opacity:1;stroke-miterlimit:10;" d="M 22.804688 179.699219 C 22.804688 185.789062 17.867188 190.722656 11.777344 190.722656 C 5.691406 190.722656 0.753906 185.789062 0.753906 179.699219 C 0.753906 173.613281 5.691406 168.675781 11.777344 168.675781 C 17.867188 168.675781 22.804688 173.613281 22.804688 179.699219 "/>
<path style="fill:none;stroke-width:0.708661;stroke-linecap:round;stroke-linejoin:round;stroke:rgb(18.431373%,30.980392%,30.980392%);stroke-opacity:1;stroke-miterlimit:10;" d="M 74.890625 179.699219 C 74.890625 185.789062 69.953125 190.722656 63.867188 190.722656 C 57.777344 190.722656 52.839844 185.789062 52.839844 179.699219 C 52.839844 173.613281 57.777344 168.675781 63.867188 168.675781 C 69.953125 168.675781 74.890625 173.613281 74.890625 179.699219 "/>
<path style="fill:none;stroke-width:0.708661;stroke-linecap:round;stroke-linejoin:round;stroke:rgb(18.431373%,30.980392%,30.980392%);stroke-opacity:1;stroke-miterlimit:10;" d="M 126.976562 179.699219 C 126.976562 185.789062 122.042969 190.722656 115.953125 190.722656 C 109.863281 190.722656 104.929688 185.789062 104.929688 179.699219 C 104.929688 173.613281 109.863281 168.675781 115.953125 168.675781 C 122.042969 168.675781 126.976562 173.613281 126.976562 179.699219 "/>
<path style="fill:none;stroke-width:0.708661;stroke-linecap:round;stroke-linejoin:round;stroke:rgb(18.431373%,30.980392%,30.980392%);stroke-opacity:1;stroke-miterlimit:10;" d="M 179.0625 179.699219 C 179.0625 185.789062 174.128906 190.722656 168.039062 190.722656 C 161.949219 190.722656 157.015625 185.789062 157.015625 179.699219 C 157.015625 173.613281 161.949219 168.675781 168.039062 168.675781 C 174.128906 168.675781 179.0625 173.613281 179.0625 179.699219 "/>
<path style="fill-rule:nonzero;fill:rgb(18.431373%,30.980392%,30.980392%);fill-opacity:1;stroke-width:0.708661;stroke-linecap:round;stroke-linejoin:round;stroke:rgb(18.431373%,30.980392%,30.980392%);stroke-opacity:1;stroke-miterlimit:10;" d="M 231.152344 179.699219 C 231.152344 185.789062 226.214844 190.722656 220.125 190.722656 C 214.039062 190.722656 209.101562 185.789062 209.101562 179.699219 C 209.101562 173.613281 214.039062 168.675781 220.125 168.675781 C 226.214844 168.675781 231.152344 173.613281 231.152344 179.699219 "/>
<path style="fill:none;stroke-width:0.708661;stroke-linecap:round;stroke-linejoin:round;stroke:rgb(18.431373%,30.980392%,30.980392%);stroke-opacity:1;stroke-miterlimit:10;" d="M 283.238281 179.699219 C 283.238281 185.789062 278.300781 190.722656 272.214844 190.722656 C 266.125 190.722656 261.1875 185.789062 261.1875 179.699219 C 261.1875 173.613281 266.125 168.675781 272.214844 168.675781 C 278.300781 168.675781 283.238281 173.613281 283.238281 179.699219 "/>
<path style="fill:none;stroke-width:0.708661;stroke-linecap:round;stroke-linejoin:round;stroke:rgb(18.431373%,30.980392%,30.980392%);stroke-opacity:1;stroke-miterlimit:10;" d="M 335.324219 179.699219 C 335.324219 185.789062 330.386719 190.722656 324.300781 190.722656 C 318.210938 190.722656 313.277344 185.789062 313.277344 179.699219 C 313.277344 173.613281 318.210938 168.675781 324.300781 168.675781 C 330.386719 168.675781 335.324219 173.613281 335.324219 179.699219 "/>
<path style="fill:none;stroke-width:0.708661;stroke-linecap:round;stroke-linejoin:round;stroke:rgb(18.431373%,30.980392%,30.980392%);stroke-opacity:1;stroke-miterlimit:10;" d="M 387.410156 179.699219 C 387.410156 185.789062 382.476562 190.722656 376.386719 190.722656 C 370.296875 190.722656 365.363281 185.789062 365.363281 179.699219 C 365.363281 173.613281 370.296875 168.675781 376.386719 168.675781 C 382.476562 168.675781 387.410156 173.613281 387.410156 179.699219 "/>
<path style="fill-rule:nonzero;fill:rgb(18.431373%,30.980392%,30.980392%);fill-opacity:1;stroke-width:0.708661;stroke-linecap:round;stroke-linejoin:round;stroke:rgb(18.431373%,30.980392%,30.980392%);stroke-opacity:1;stroke-miterlimit:10;" d="M 439.5 179.699219 C 439.5 185.789062 434.5625 190.722656 428.472656 190.722656 C 422.386719 190.722656 417.449219 185.789062 417.449219 179.699219 C 417.449219 173.613281 422.386719 168.675781 428.472656 168.675781 C 434.5625 168.675781 439.5 173.613281 439.5 179.699219 "/>
<path style="fill:none;stroke-width:0.708661;stroke-linecap:round;stroke-linejoin:round;stroke:rgb(18.431373%,30.980392%,30.980392%);stroke-opacity:1;stroke-miterlimit:10;" d="M 491.585938 179.699219 C 491.585938 185.789062 486.648438 190.722656 480.5625 190.722656 C 474.472656 190.722656 469.535156 185.789062 469.535156 179.699219 C 469.535156 173.613281 474.472656 168.675781 480.5625 168.675781 C 486.648438 168.675781 491.585938 173.613281 491.585938 179.699219 "/>
<path style="fill:none;stroke-width:0.708661;stroke-linecap:round;stroke-linejoin:round;stroke:rgb(18.431373%,30.980392%,30.980392%);stroke-opacity:1;stroke-miterlimit:10;" d="M 22.804688 127.613281 C 22.804688 133.703125 17.867188 138.636719 11.777344 138.636719 C 5.691406 138.636719 0.753906 133.703125 0.753906 127.613281 C 0.753906 121.523438 5.691406 116.589844 11.777344 116.589844 C 17.867188 116.589844 22.804688 121.523438 22.804688 127.613281 "/>
<path style="fill-rule:nonzero;fill:rgb(18.431373%,30.980392%,30.980392%);fill-opacity:1;stroke-width:0.708661;stroke-linecap:round;stroke-linejoin:round;stroke:rgb(18.431373%,30.980392%,30.980392%);stroke-opacity:1;stroke-miterlimit:10;" d="M 74.890625 127.613281 C 74.890625 133.703125 69.953125 138.636719 63.867188 138.636719 C 57.777344 138.636719 52.839844 133.703125 52.839844 127.613281 C 52.839844 121.523438 57.777344 116.589844 63.867188 116.589844 C 69.953125 116.589844 74.890625 121.523438 74.890625 127.613281 "/>
<path style="fill-rule:nonzero;fill:rgb(18.431373%,30.980392%,30.980392%);fill-opacity:1;stroke-width:0.708661;stroke-linecap:round;stroke-linejoin:round;stroke:rgb(18.431373%,30.980392%,30.980392%);stroke-opacity:1;stroke-miterlimit:10;" d="M 126.976562 127.613281 C 126.976562 133.703125 122.042969 138.636719 115.953125 138.636719 C 109.863281 138.636719 104.929688 133.703125 104.929688 127.613281 C 104.929688 121.523438 109.863281 116.589844 115.953125 116.589844 C 122.042969 116.589844 126.976562 121.523438 126.976562 127.613281 "/>
<path style="fill-rule:nonzero;fill:rgb(18.431373%,30.980392%,30.980392%);fill-opacity:1;stroke-width:0.708661;stroke-linecap:round;stroke-linejoin:round;stroke:rgb(18.431373%,30.980392%,30.980392%);stroke-opacity:1;stroke-miterlimit:10;" d="M 179.0625 127.613281 C 179.0625 133.703125 174.128906 138.636719 168.039062 138.636719 C 161.949219 138.636719 157.015625 133.703125 157.015625 127.613281 C 157.015625 121.523438 161.949219 116.589844 168.039062 116.589844 C 174.128906 116.589844 179.0625 121.523438 179.0625 127.613281 "/>
<path style="fill:none;stroke-width:0.708661;stroke-linecap:round;stroke-linejoin:round;stroke:rgb(18.431373%,30.980392%,30.980392%);stroke-opacity:1;stroke-miterlimit:10;" d="M 231.152344 127.613281 C 231.152344 133.703125 226.214844 138.636719 220.125 138.636719 C 214.039062 138.636719 209.101562 133.703125 209.101562 127.613281 C 209.101562 121.523438 214.039062 116.589844 220.125 116.589844 C 226.214844 116.589844 231.152344 121.523438 231.152344 127.613281 "/>
<path style="fill:none;stroke-width:0.708661;stroke-linecap:round;stroke-linejoin:round;stroke:rgb(18.431373%,30.980392%,30.980392%);stroke-opacity:1;stroke-miterlimit:10;" d="M 283.238281 127.613281 C 283.238281 133.703125 278.300781 138.636719 272.214844 138.636719 C 266.125 138.636719 261.1875 133.703125 261.1875 127.613281 C 261.1875 121.523438 266.125 116.589844 272.214844 116.589844 C 278.300781 116.589844 283.238281 121.523438 283.238281 127.613281 "/>
<path style="fill:none;stroke-width:0.708661;stroke-linecap:round;stroke-linejoin:round;stroke:rgb(18.431373%,30.980392%,30.980392%);stroke-opacity:1;stroke-miterlimit:10;" d="M 335.324219 127.613281 C 335.324219 133.703125 330.386719 138.636719 324.300781 138.636719 C 318.210938 138.636719 313.277344 133.703125 313.277344 127.613281 C 313.277344 121.523438 318.210938 116.589844 324.300781 116.589844 C 330.386719 116.589844 335.324219 121.523438 335.324219 127.613281 "/>
<path style="fill:none;stroke-width:0.708661;stroke-linecap:round;stroke-linejoin:round;stroke:rgb(18.431373%,30.980392%,30.980392%);stroke-opacity:1;stroke-miterlimit:10;" d="M 387.410156 127.613281 C 387.410156 133.703125 382.476562 138.636719 376.386719 138.636719 C 370.296875 138.636719 365.363281 133.703125 365.363281 127.613281 C 365.363281 121.523438 370.296875 116.589844 376.386719 116.589844 C 382.476562 116.589844 387.410156 121.523438 387.410156 127.613281 "/>
<path style="fill-rule:nonzero;fill:rgb(18.431373%,30.980392%,30.980392%);fill-opacity:1;stroke-width:0.708661;stroke-linecap:round;stroke-linejoin:round;stroke:rgb(18.431373%,30.980392%,30.980392%);stroke-opacity:1;stroke-miterlimit:10;" d="M 439.5 127.613281 C 439.5 133.703125 434.5625 138.636719 428.472656 138.636719 C 422.386719 138.636719 417.449219 133.703125 417.449219 127.613281 C 417.449219 121.523438 422.386719 116.589844 428.472656 116.589844 C 434.5625 116.589844 439.5 121.523438 439.5 127.613281 "/>
<path style="fill-rule:nonzero;fill:rgb(18.431373%,30.980392%,30.980392%);fill-opacity:1;stroke-width:0.708661;stroke-linecap:round;stroke-linejoin:round;stroke:rgb(18.431373%,30.980392%,30.980392%);stroke-opacity:1;stroke-miterlimit:10;" d="M 491.585938 127.613281 C 491.585938 133.703125 486.648438 138.636719 480.5625 138.636719 C 474.472656 138.636719 469.535156 133.703125 469.535156 127.613281 C 469.535156 121.523438 474.472656 116.589844 480.5625 116.589844 C 486.648438 116.589844 491.585938 121.523438 491.585938 127.613281 "/>
<path style="fill:none;stroke-width:0.708661;stroke-linecap:round;stroke-linejoin:round;stroke:rgb(18.431373%,30.980392%,30.980392%);stroke-opacity:1;stroke-miterlimit:10;" d="M 22.804688 75.527344 C 22.804688 81.613281 17.867188 86.550781 11.777344 86.550781 C 5.691406 86.550781 0.753906 81.613281 0.753906 75.527344 C 0.753906 69.4375 5.691406 64.5 11.777344 64.5 C 17.867188 64.5 22.804688 69.4375 22.804688 75.527344 "/>
<path style="fill:none;stroke-width:0.708661;stroke-linecap:round;stroke-linejoin:round;stroke:rgb(18.431373%,30.980392%,30.980392%);stroke-opacity:1;stroke-miterlimit:10;" d="M 74.890625 75.527344 C 74.890625 81.613281 69.953125 86.550781 63.867188 86.550781 C 57.777344 86.550781 52.839844 81.613281 52.839844 75.527344 C 52.839844 69.4375 57.777344 64.5 63.867188 64.5 C 69.953125 64.5 74.890625 69.4375 74.890625 75.527344 "/>
<path style="fill-rule:nonzero;fill:rgb(18.431373%,30.980392%,30.980392%);fill-opacity:1;stroke-width:0.708661;stroke-linecap:round;stroke-linejoin:round;stroke:rgb(18.431373%,30.980392%,30.980392%);stroke-opacity:1;stroke-miterlimit:10;" d="M 126.976562 75.527344 C 126.976562 81.613281 122.042969 86.550781 115.953125 86.550781 C 109.863281 86.550781 104.929688 81.613281 104.929688 75.527344 C 104.929688 69.4375 109.863281 64.5 115.953125 64.5 C 122.042969 64.5 126.976562 69.4375 126.976562 75.527344 "/>
<path style="fill-rule:nonzero;fill:rgb(18.431373%,30.980392%,30.980392%);fill-opacity:1;stroke-width:0.708661;stroke-linecap:round;stroke-linejoin:round;stroke:rgb(18.431373%,30.980392%,30.980392%);stroke-opacity:1;stroke-miterlimit:10;" d="M 179.0625 75.527344 C 179.0625 81.613281 174.128906 86.550781 168.039062 86.550781 C 161.949219 86.550781 157.015625 81.613281 157.015625 75.527344 C 157.015625 69.4375 161.949219 64.5 168.039062 64.5 C 174.128906 64.5 179.0625 69.4375 179.0625 75.527344 "/>
<path style="fill-rule:nonzero;fill:rgb(18.431373%,30.980392%,30.980392%);fill-opacity:1;stroke-width:0.708661;stroke-linecap:round;stroke-linejoin:round;stroke:rgb(18.431373%,30.980392%,30.980392%);stroke-opacity:1;stroke-miterlimit:10;" d="M 231.152344 75.527344 C 231.152344 81.613281 226.214844 86.550781 220.125 86.550781 C 214.039062 86.550781 209.101562 81.613281 209.101562 75.527344 C 209.101562 69.4375 214.039062 64.5 220.125 64.5 C 226.214844 64.5 231.152344 69.4375 231.152344 75.527344 "/>
<path style="fill:none;stroke-width:0.708661;stroke-linecap:round;stroke-linejoin:round;stroke:rgb(18.431373%,30.980392%,30.980392%);stroke-opacity:1;stroke-miterlimit:10;" d="M 283.238281 75.527344 C 283.238281 81.613281 278.300781 86.550781 272.214844 86.550781 C 266.125 86.550781 261.1875 81.613281 261.1875 75.527344 C 261.1875 69.4375 266.125 64.5 272.214844 64.5 C 278.300781 64.5 283.238281 69.4375 283.238281 75.527344 "/>
<path style="fill:none;stroke-width:0.708661;stroke-linecap:round;stroke-linejoin:round;stroke:rgb(18.431373%,30.980392%,30.980392%);stroke-opacity:1;stroke-miterlimit:10;" d="M 335.324219 75.527344 C 335.324219 81.613281 330.386719 86.550781 324.300781 86.550781 C 318.210938 86.550781 313.277344 81.613281 313.277344 75.527344 C 313.277344 69.4375 318.210938 64.5 324.300781 64.5 C 330.386719 64.5 335.324219 69.4375 335.324219 75.527344 "/>
<path style="fill:none;stroke-width:0.708661;stroke-linecap:round;stroke-linejoin:round;stroke:rgb(18.431373%,30.980392%,30.980392%);stroke-opacity:1;stroke-miterlimit:10;" d="M 387.410156 75.527344 C 387.410156 81.613281 382.476562 86.550781 376.386719 86.550781 C 370.296875 86.550781 365.363281 81.613281 365.363281 75.527344 C 365.363281 69.4375 370.296875 64.5 376.386719 64.5 C 382.476562 64.5 387.410156 69.4375 387.410156 75.527344 "/>
<path style="fill:none;stroke-width:0.708661;stroke-linecap:round;stroke-linejoin:round;stroke:rgb(18.431373%,30.980392%,30.980392%);stroke-opacity:1;stroke-miterlimit:10;" d="M 439.5 75.527344 C 439.5 81.613281 434.5625 86.550781 428.472656 86.550781 C 422.386719 86.550781 417.449219 81.613281 417.449219 75.527344 C 417.449219 69.4375 422.386719 64.5 428.472656 64.5 C 434.5625 64.5 439.5 69.4375 439.5 75.527344 "/>
<path style="fill:none;stroke-width:0.708661;stroke-linecap:round;stroke-linejoin:round;stroke:rgb(18.431373%,30.980392%,30.980392%);stroke-opacity:1;stroke-miterlimit:10;" d="M 491.585938 75.527344 C 491.585938 81.613281 486.648438 86.550781 480.5625 86.550781 C 474.472656 86.550781 469.535156 81.613281 469.535156 75.527344 C 469.535156 69.4375 474.472656 64.5 480.5625 64.5 C 486.648438 64.5 491.585938 69.4375 491.585938 75.527344 "/>
<path style="fill:none;stroke-width:0.708661;stroke-linecap:round;stroke-linejoin:round;stroke:rgb(18.431373%,30.980392%,30.980392%);stroke-opacity:1;stroke-miterlimit:10;" d="M 22.804688 23.4375 C 22.804688 29.527344 17.867188 34.464844 11.777344 34.464844 C 5.691406 34.464844 0.753906 29.527344 0.753906 23.4375 C 0.753906 17.351562 5.691406 12.414062 11.777344 12.414062 C 17.867188 12.414062 22.804688 17.351562 22.804688 23.4375 "/>
<path style="fill:none;stroke-width:0.708661;stroke-linecap:round;stroke-linejoin:round;stroke:rgb(18.431373%,30.980392%,30.980392%);stroke-opacity:1;stroke-miterlimit:10;" d="M 74.890625 23.4375 C 74.890625 29.527344 69.953125 34.464844 63.867188 34.464844 C 57.777344 34.464844 52.839844 29.527344 52.839844 23.4375 C 52.839844 17.351562 57.777344 12.414062 63.867188 12.414062 C 69.953125 12.414062 74.890625 17.351562 74.890625 23.4375 "/>
<path style="fill-rule:nonzero;fill:rgb(18.431373%,30.980392%,30.980392%);fill-opacity:1;stroke-width:0.708661;stroke-linecap:round;stroke-linejoin:round;stroke:rgb(18.431373%,30.980392%,30.980392%);stroke-opacity:1;stroke-miterlimit:10;" d="M 126.976562 23.4375 C 126.976562 29.527344 122.042969 34.464844 115.953125 34.464844 C 109.863281 34.464844 104.929688 29.527344 104.929688 23.4375 C 104.929688 17.351562 109.863281 12.414062 115.953125 12.414062 C 122.042969 12.414062 126.976562 17.351562 126.976562 23.4375 "/>
<path style="fill:none;stroke-width:0.708661;stroke-linecap:round;stroke-linejoin:round;stroke:rgb(18.431373%,30.980392%,30.980392%);stroke-opacity:1;stroke-miterlimit:10;" d="M 179.0625 23.4375 C 179.0625 29.527344 174.128906 34.464844 168.039062 34.464844 C 161.949219 34.464844 157.015625 29.527344 157.015625 23.4375 C 157.015625 17.351562 161.949219 12.414062 168.039062 12.414062 C 174.128906 12.414062 179.0625 17.351562 179.0625 23.4375 "/>
<path style="fill:none;stroke-width:0.708661;stroke-linecap:round;stroke-linejoin:round;stroke:rgb(18.431373%,30.980392%,30.980392%);stroke-opacity:1;stroke-miterlimit:10;" d="M 231.152344 23.4375 C 231.152344 29.527344 226.214844 34.464844 220.125 34.464844 C 214.039062 34.464844 209.101562 29.527344 209.101562 23.4375 C 209.101562 17.351562 214.039062 12.414062 220.125 12.414062 C 226.214844 12.414062 231.152344 17.351562 231.152344 23.4375 "/>
<path style="fill:none;stroke-width:0.708661;stroke-linecap:round;stroke-linejoin:round;stroke:rgb(18.431373%,30.980392%,30.980392%);stroke-opacity:1;stroke-miterlimit:10;" d="M 283.238281 23.4375 C 283.238281 29.527344 278.300781 34.464844 272.214844 34.464844 C 266.125 34.464844 261.1875 29.527344 261.1875 23.4375 C 261.1875 17.351562 266.125 12.414062 272.214844 12.414062 C 278.300781 12.414062 283.238281 17.351562 283.238281 23.4375 "/>
<path style="fill:none;stroke-width:0.708661;stroke-linecap:round;stroke-linejoin:round;stroke:rgb(18.431373%,30.980392%,30.980392%);stroke-opacity:1;stroke-miterlimit:10;" d="M 335.324219 23.4375 C 335.324219 29.527344 330.386719 34.464844 324.300781 34.464844 C 318.210938 34.464844 313.277344 29.527344 313.277344 23.4375 C 313.277344 17.351562 318.210938 12.414062 324.300781 12.414062 C 330.386719 12.414062 335.324219 17.351562 335.324219 23.4375 "/>
<path style="fill-rule:nonzero;fill:rgb(18.431373%,30.980392%,30.980392%);fill-opacity:1;stroke-width:0.708661;stroke-linecap:round;stroke-linejoin:round;stroke:rgb(18.431373%,30.980392%,30.980392%);stroke-opacity:1;stroke-miterlimit:10;" d="M 387.410156 23.4375 C 387.410156 29.527344 382.476562 34.464844 376.386719 34.464844 C 370.296875 34.464844 365.363281 29.527344 365.363281 23.4375 C 365.363281 17.351562 370.296875 12.414062 376.386719 12.414062 C 382.476562 12.414062 387.410156 17.351562 387.410156 23.4375 "/>
<path style="fill-rule:nonzero;fill:rgb(18.431373%,30.980392%,30.980392%);fill-opacity:1;stroke-width:0.708661;stroke-linecap:round;stroke-linejoin:round;stroke:rgb(18.431373%,30.980392%,30.980392%);stroke-opacity:1;stroke-miterlimit:10;" d="M 439.5 23.4375 C 439.5 29.527344 434.5625 34.464844 428.472656 34.464844 C 422.386719 34.464844 417.449219 29.527344 417.449219 23.4375 C 417.449219 17.351562 422.386719 12.414062 428.472656 12.414062 C 434.5625 12.414062 439.5 17.351562 439.5 23.4375 "/>
<path style="fill-rule:nonzero;fill:rgb(18.431373%,30.980392%,30.980392%);fill-opacity:1;stroke-width:0.708661;stroke-linecap:round;stroke-linejoin:round;stroke:rgb(18.431373%,30.980392%,30.980392%);stroke-opacity:1;stroke-miterlimit:10;" d="M 491.585938 23.4375 C 491.585938 29.527344 486.648438 34.464844 480.5625 34.464844 C 474.472656 34.464844 469.535156 29.527344 469.535156 23.4375 C 469.535156 17.351562 474.472656 12.414062 480.5625 12.414062 C 486.648438 12.414062 491.585938 17.351562 491.585938 23.4375 "/>
</g>
</svg>
