<?xml version="1.0" encoding="UTF-8"?>
<svg xmlns="http://www.w3.org/2000/svg" xmlns:xlink="http://www.w3.org/1999/xlink" width="504pt" height="504pt" viewBox="0 0 504 504" version="1.1">
<g id="surface955">
<rect x="0" y="0" width="504" height="504" style="fill:rgb(100%,100%,100%);fill-opacity:1;stroke:none;"/>
<path style="fill:none;stroke-width:6.40187;stroke-linecap:butt;stroke-linejoin:round;stroke:rgb(100%,0%,0%);stroke-opacity:1;stroke-miterlimit:10;" d="M -527.320312 689.425781 L 1019.660156 -141.71875 "/>
<path style="fill-rule:nonzero;fill:rgb(18.431373%,30.980392%,30.980392%);fill-opacity:1;stroke-width:0.708661;stroke-linecap:round;stroke-linejoin:round;stroke:rgb(18.431373%,30.980392%,30.980392%);stroke-opacity:1;stroke-miterlimit:10;" d="M 250.539062 232.777344 C 250.539062 236.507812 247.515625 239.535156 243.785156 239.535156 C 240.050781 239.535156 237.027344 236.507812 237.027344 232.777344 C 237.027344 229.046875 240.050781 226.023438 243.785156 226.023438 C 247.515625 226.023438 250.539062 229.046875 250.539062 232.777344 "/>
<path style="fill-rule:nonzero;fill:rgb(18.431373%,30.980392%,30.980392%);fill-opacity:1;stroke-width:0.708661;stroke-linecap:round;stroke-linejoin:round;stroke:rgb(18.431373%,30.980392%,30.980392%);stroke-opacity:1;stroke-miterlimit:10;" d="M 131.558594 218.875 C 131.558594 222.605469 128.53125 225.628906 124.800781 225.628906 C 121.070312 225.628906 118.046875 222.605469 118.046875 218.875 C 118.046875 215.144531 121.070312 212.117188 124.800781 212.117188 C 128.53125 212.117188 131.558594 215.144531 131.558594 218.875 "/>
<path style="fill-rule:nonzero;fill:rgb(18.431373%,30.980392%,30.980392%);fill-opacity:1;stroke-width:0.708661;stroke-linecap:round;stroke-linejoin:round;stroke:rgb(18.431373%,30.980392%,30.980392%);stroke-opacity:1;stroke-miterlimit:10;" d="M 302.832031 492.222656 C 302.832031 495.953125 299.808594 498.976562 296.078125 498.976562 C 292.34375 498.976562 289.320312 495.953125 289.320312 492.222656 C 289.320312 488.488281 292.34375 485.464844 296.078125 485.464844 C 299.808594 485.464844 302.832031 488.488281 302.832031 492.222656 "/>
<path style="fill-rule:nonzero;fill:rgb(18.431373%,30.980392%,30.980392%);fill-opacity:1;stroke-width:0.708661;stroke-linecap:round;stroke-linejoin:round;stroke:rgb(18.431373%,30.980392%,30.980392%);stroke-opacity:1;stroke-miterlimit:10;" d="M 265.371094 330.417969 C 265.371094 334.148438 262.34375 337.175781 258.613281 337.175781 C 254.882812 337.175781 251.855469 334.148438 251.855469 330.417969 C 251.855469 326.6875 254.882812 323.660156 258.613281 323.660156 C 262.34375 323.660156 265.371094 326.6875 265.371094 330.417969 "/>
<path style="fill-rule:nonzero;fill:rgb(18.431373%,30.980392%,30.980392%);fill-opacity:1;stroke-width:0.708661;stroke-linecap:round;stroke-linejoin:round;stroke:rgb(18.431373%,30.980392%,30.980392%);stroke-opacity:1;stroke-miterlimit:10;" d="M 210.183594 205.230469 C 210.183594 208.964844 207.15625 211.988281 203.425781 211.988281 C 199.695312 211.988281 196.671875 208.964844 196.671875 205.230469 C 196.671875 201.5 199.695312 198.476562 203.425781 198.476562 C 207.15625 198.476562 210.183594 201.5 210.183594 205.230469 "/>
<path style="fill-rule:nonzero;fill:rgb(18.431373%,30.980392%,30.980392%);fill-opacity:1;stroke-width:0.708661;stroke-linecap:round;stroke-linejoin:round;stroke:rgb(18.431373%,30.980392%,30.980392%);stroke-opacity:1;stroke-miterlimit:10;" d="M 268.984375 301.269531 C 268.984375 305.003906 265.960938 308.027344 262.230469 308.027344 C 258.496094 308.027344 255.472656 305.003906 255.472656 301.269531 C 255.472656 297.539062 258.496094 294.515625 262.230469 294.515625 C 265.960938 294.515625 268.984375 297.539062 268.984375 301.269531 "/>
<path style="fill-rule:nonzero;fill:rgb(18.431373%,30.980392%,30.980392%);fill-opacity:1;stroke-width:0.708661;stroke-linecap:round;stroke-linejoin:round;stroke:rgb(18.431373%,30.980392%,30.980392%);stroke-opacity:1;stroke-miterlimit:10;" d="M 264.558594 207.246094 C 264.558594 210.980469 261.535156 214.003906 257.804688 214.003906 C 254.070312 214.003906 251.046875 210.980469 251.046875 207.246094 C 251.046875 203.515625 254.070312 200.492188 257.804688 200.492188 C 261.535156 200.492188 264.558594 203.515625 264.558594 207.246094 "/>
<path style="fill-rule:nonzero;fill:rgb(18.431373%,30.980392%,30.980392%);fill-opacity:1;stroke-width:0.708661;stroke-linecap:round;stroke-linejoin:round;stroke:rgb(18.431373%,30.980392%,30.980392%);stroke-opacity:1;stroke-miterlimit:10;" d="M 188.6875 404.730469 C 188.6875 408.460938 185.660156 411.488281 181.929688 411.488281 C 178.199219 411.488281 175.171875 408.460938 175.171875 404.730469 C 175.171875 401 178.199219 397.976562 181.929688 397.976562 C 185.660156 397.976562 188.6875 401 188.6875 404.730469 "/>
<path style="fill-rule:nonzero;fill:rgb(18.431373%,30.980392%,30.980392%);fill-opacity:1;stroke-width:0.708661;stroke-linecap:round;stroke-linejoin:round;stroke:rgb(18.431373%,30.980392%,30.980392%);stroke-opacity:1;stroke-miterlimit:10;" d="M 323.476562 265.496094 C 323.476562 269.226562 320.453125 272.253906 316.722656 272.253906 C 312.988281 272.253906 309.964844 269.226562 309.964844 265.496094 C 309.964844 261.765625 312.988281 258.738281 316.722656 258.738281 C 320.453125 258.738281 323.476562 261.765625 323.476562 265.496094 "/>
<path style="fill-rule:nonzero;fill:rgb(18.431373%,30.980392%,30.980392%);fill-opacity:1;stroke-width:0.708661;stroke-linecap:round;stroke-linejoin:round;stroke:rgb(18.431373%,30.980392%,30.980392%);stroke-opacity:1;stroke-miterlimit:10;" d="M 389.457031 95.546875 C 389.457031 99.277344 386.433594 102.300781 382.703125 102.300781 C 378.96875 102.300781 375.945312 99.277344 375.945312 95.546875 C 375.945312 91.8125 378.96875 88.789062 382.703125 88.789062 C 386.433594 88.789062 389.457031 91.8125 389.457031 95.546875 "/>
<path style="fill-rule:nonzero;fill:rgb(18.431373%,30.980392%,30.980392%);fill-opacity:1;stroke-width:0.708661;stroke-linecap:round;stroke-linejoin:round;stroke:rgb(18.431373%,30.980392%,30.980392%);stroke-opacity:1;stroke-miterlimit:10;" d="M 200.960938 428.800781 C 200.960938 432.53125 197.9375 435.558594 194.203125 435.558594 C 190.472656 435.558594 187.449219 432.53125 187.449219 428.800781 C 187.449219 425.070312 190.472656 422.042969 194.203125 422.042969 C 197.9375 422.042969 200.960938 425.070312 200.960938 428.800781 "/>
<path style="fill-rule:nonzero;fill:rgb(18.431373%,30.980392%,30.980392%);fill-opacity:1;stroke-width:0.708661;stroke-linecap:round;stroke-linejoin:round;stroke:rgb(18.431373%,30.980392%,30.980392%);stroke-opacity:1;stroke-miterlimit:10;" d="M 171.382812 257.964844 C 171.382812 261.695312 168.355469 264.71875 164.625 264.71875 C 160.894531 264.71875 157.871094 261.695312 157.871094 257.964844 C 157.871094 254.230469 160.894531 251.207031 164.625 251.207031 C 168.355469 251.207031 171.382812 254.230469 171.382812 257.964844 "/>
<path style="fill-rule:nonzero;fill:rgb(18.431373%,30.980392%,30.980392%);fill-opacity:1;stroke-width:0.708661;stroke-linecap:round;stroke-linejoin:round;stroke:rgb(18.431373%,30.980392%,30.980392%);stroke-opacity:1;stroke-miterlimit:10;" d="M 269.320312 327.328125 C 269.320312 331.058594 266.296875 334.085938 262.566406 334.085938 C 258.832031 334.085938 255.808594 331.058594 255.808594 327.328125 C 255.808594 323.597656 258.832031 320.574219 262.566406 320.574219 C 266.296875 320.574219 269.320312 323.597656 269.320312 327.328125 "/>
<path style="fill-rule:nonzero;fill:rgb(18.431373%,30.980392%,30.980392%);fill-opacity:1;stroke-width:0.708661;stroke-linecap:round;stroke-linejoin:round;stroke:rgb(18.431373%,30.980392%,30.980392%);stroke-opacity:1;stroke-miterlimit:10;" d="M 206.707031 317.972656 C 206.707031 321.703125 203.679688 324.726562 199.949219 324.726562 C 196.21875 324.726562 193.195312 321.703125 193.195312 317.972656 C 193.195312 314.242188 196.21875 311.214844 199.949219 311.214844 C 203.679688 311.214844 206.707031 314.242188 206.707031 317.972656 "/>
<path style="fill-rule:nonzero;fill:rgb(18.431373%,30.980392%,30.980392%);fill-opacity:1;stroke-width:0.708661;stroke-linecap:round;stroke-linejoin:round;stroke:rgb(18.431373%,30.980392%,30.980392%);stroke-opacity:1;stroke-miterlimit:10;" d="M 396.730469 210.347656 C 396.730469 214.078125 393.703125 217.101562 389.972656 217.101562 C 386.242188 217.101562 383.21875 214.078125 383.21875 210.347656 C 383.21875 206.617188 386.242188 203.589844 389.972656 203.589844 C 393.703125 203.589844 396.730469 206.617188 396.730469 210.347656 "/>
<path style="fill-rule:nonzero;fill:rgb(18.431373%,30.980392%,30.980392%);fill-opacity:1;stroke-width:0.708661;stroke-linecap:round;stroke-linejoin:round;stroke:rgb(18.431373%,30.980392%,30.980392%);stroke-opacity:1;stroke-miterlimit:10;" d="M 199.230469 161.148438 C 199.230469 164.878906 196.203125 167.90625 192.472656 167.90625 C 188.742188 167.90625 185.71875 164.878906 185.71875 161.148438 C 185.71875 157.417969 188.742188 154.390625 192.472656 154.390625 C 196.203125 154.390625 199.230469 157.417969 199.230469 161.148438 "/>
<path style="fill-rule:nonzero;fill:rgb(18.431373%,30.980392%,30.980392%);fill-opacity:1;stroke-width:0.708661;stroke-linecap:round;stroke-linejoin:round;stroke:rgb(18.431373%,30.980392%,30.980392%);stroke-opacity:1;stroke-miterlimit:10;" d="M 314.855469 204.839844 C 314.855469 208.570312 311.828125 211.59375 308.097656 211.59375 C 304.367188 211.59375 301.34375 208.570312 301.34375 204.839844 C 301.34375 201.109375 304.367188 198.082031 308.097656 198.082031 C 311.828125 198.082031 314.855469 201.109375 314.855469 204.839844 "/>
<path style="fill-rule:nonzero;fill:rgb(18.431373%,30.980392%,30.980392%);fill-opacity:1;stroke-width:0.708661;stroke-linecap:round;stroke-linejoin:round;stroke:rgb(18.431373%,30.980392%,30.980392%);stroke-opacity:1;stroke-miterlimit:10;" d="M 379.984375 306.621094 C 379.984375 310.351562 376.960938 313.375 373.230469 313.375 C 369.5 313.375 366.472656 310.351562 366.472656 306.621094 C 366.472656 302.890625 369.5 299.863281 373.230469 299.863281 C 376.960938 299.863281 379.984375 302.890625 379.984375 306.621094 "/>
<path style="fill-rule:nonzero;fill:rgb(18.431373%,30.980392%,30.980392%);fill-opacity:1;stroke-width:0.708661;stroke-linecap:round;stroke-linejoin:round;stroke:rgb(18.431373%,30.980392%,30.980392%);stroke-opacity:1;stroke-miterlimit:10;" d="M 487.316406 117.105469 C 487.316406 120.835938 484.292969 123.863281 480.5625 123.863281 C 476.828125 123.863281 473.804688 120.835938 473.804688 117.105469 C 473.804688 113.375 476.828125 110.351562 480.5625 110.351562 C 484.292969 110.351562 487.316406 113.375 487.316406 117.105469 "/>
<path style="fill-rule:nonzero;fill:rgb(18.431373%,30.980392%,30.980392%);fill-opacity:1;stroke-width:0.708661;stroke-linecap:round;stroke-linejoin:round;stroke:rgb(18.431373%,30.980392%,30.980392%);stroke-opacity:1;stroke-miterlimit:10;" d="M 284.484375 313.425781 C 284.484375 317.15625 281.457031 320.179688 277.726562 320.179688 C 273.996094 320.179688 270.972656 317.15625 270.972656 313.425781 C 270.972656 309.695312 273.996094 306.667969 277.726562 306.667969 C 281.457031 306.667969 284.484375 309.695312 284.484375 313.425781 "/>
<path style="fill-rule:nonzero;fill:rgb(18.431373%,30.980392%,30.980392%);fill-opacity:1;stroke-width:0.708661;stroke-linecap:round;stroke-linejoin:round;stroke:rgb(18.431373%,30.980392%,30.980392%);stroke-opacity:1;stroke-miterlimit:10;" d="M 411.441406 248.382812 C 411.441406 252.117188 408.414062 255.140625 404.683594 255.140625 C 400.953125 255.140625 397.925781 252.117188 397.925781 248.382812 C 397.925781 244.652344 400.953125 241.628906 404.683594 241.628906 C 408.414062 241.628906 411.441406 244.652344 411.441406 248.382812 "/>
<path style="fill-rule:nonzero;fill:rgb(18.431373%,30.980392%,30.980392%);fill-opacity:1;stroke-width:0.708661;stroke-linecap:round;stroke-linejoin:round;stroke:rgb(18.431373%,30.980392%,30.980392%);stroke-opacity:1;stroke-miterlimit:10;" d="M 300.867188 337.082031 C 300.867188 340.8125 297.84375 343.835938 294.113281 343.835938 C 290.378906 343.835938 287.355469 340.8125 287.355469 337.082031 C 287.355469 333.347656 290.378906 330.324219 294.113281 330.324219 C 297.84375 330.324219 300.867188 333.347656 300.867188 337.082031 "/>
<path style="fill-rule:nonzero;fill:rgb(18.431373%,30.980392%,30.980392%);fill-opacity:1;stroke-width:0.708661;stroke-linecap:round;stroke-linejoin:round;stroke:rgb(18.431373%,30.980392%,30.980392%);stroke-opacity:1;stroke-miterlimit:10;" d="M 261.027344 316.125 C 261.027344 319.855469 258 322.878906 254.269531 322.878906 C 250.539062 322.878906 247.511719 319.855469 247.511719 316.125 C 247.511719 312.390625 250.539062 309.367188 254.269531 309.367188 C 258 309.367188 261.027344 312.390625 261.027344 316.125 "/>
<path style="fill-rule:nonzero;fill:rgb(18.431373%,30.980392%,30.980392%);fill-opacity:1;stroke-width:0.708661;stroke-linecap:round;stroke-linejoin:round;stroke:rgb(18.431373%,30.980392%,30.980392%);stroke-opacity:1;stroke-miterlimit:10;" d="M 284.617188 291.675781 C 284.617188 295.40625 281.59375 298.429688 277.859375 298.429688 C 274.128906 298.429688 271.105469 295.40625 271.105469 291.675781 C 271.105469 287.941406 274.128906 284.917969 277.859375 284.917969 C 281.59375 284.917969 284.617188 287.941406 284.617188 291.675781 "/>
<path style="fill-rule:nonzero;fill:rgb(18.431373%,30.980392%,30.980392%);fill-opacity:1;stroke-width:0.708661;stroke-linecap:round;stroke-linejoin:round;stroke:rgb(18.431373%,30.980392%,30.980392%);stroke-opacity:1;stroke-miterlimit:10;" d="M 381.597656 259.09375 C 381.597656 262.824219 378.570312 265.851562 374.839844 265.851562 C 371.109375 265.851562 368.082031 262.824219 368.082031 259.09375 C 368.082031 255.363281 371.109375 252.339844 374.839844 252.339844 C 378.570312 252.339844 381.597656 255.363281 381.597656 259.09375 "/>
<path style="fill-rule:nonzero;fill:rgb(18.431373%,30.980392%,30.980392%);fill-opacity:1;stroke-width:0.708661;stroke-linecap:round;stroke-linejoin:round;stroke:rgb(18.431373%,30.980392%,30.980392%);stroke-opacity:1;stroke-miterlimit:10;" d="M 272.984375 280.570312 C 272.984375 284.300781 269.960938 287.328125 266.226562 287.328125 C 262.496094 287.328125 259.472656 284.300781 259.472656 280.570312 C 259.472656 276.839844 262.496094 273.816406 266.226562 273.816406 C 269.960938 273.816406 272.984375 276.839844 272.984375 280.570312 "/>
<path style="fill-rule:nonzero;fill:rgb(18.431373%,30.980392%,30.980392%);fill-opacity:1;stroke-width:0.708661;stroke-linecap:round;stroke-linejoin:round;stroke:rgb(18.431373%,30.980392%,30.980392%);stroke-opacity:1;stroke-miterlimit:10;" d="M 240.828125 203.101562 C 240.828125 206.832031 237.804688 209.855469 234.070312 209.855469 C 230.339844 209.855469 227.316406 206.832031 227.316406 203.101562 C 227.316406 199.367188 230.339844 196.34375 234.070312 196.34375 C 237.804688 196.34375 240.828125 199.367188 240.828125 203.101562 "/>
<path style="fill-rule:nonzero;fill:rgb(18.431373%,30.980392%,30.980392%);fill-opacity:1;stroke-width:0.708661;stroke-linecap:round;stroke-linejoin:round;stroke:rgb(18.431373%,30.980392%,30.980392%);stroke-opacity:1;stroke-miterlimit:10;" d="M 177.617188 295.34375 C 177.617188 299.078125 174.59375 302.101562 170.863281 302.101562 C 167.132812 302.101562 164.105469 299.078125 164.105469 295.34375 C 164.105469 291.613281 167.132812 288.589844 170.863281 288.589844 C 174.59375 288.589844 177.617188 291.613281 177.617188 295.34375 "/>
<path style="fill-rule:nonzero;fill:rgb(18.431373%,30.980392%,30.980392%);fill-opacity:1;stroke-width:0.708661;stroke-linecap:round;stroke-linejoin:round;stroke:rgb(18.431373%,30.980392%,30.980392%);stroke-opacity:1;stroke-miterlimit:10;" d="M 84.898438 435.296875 C 84.898438 439.027344 81.871094 442.050781 78.140625 442.050781 C 74.410156 442.050781 71.386719 439.027344 71.386719 435.296875 C 71.386719 431.5625 74.410156 428.539062 78.140625 428.539062 C 81.871094 428.539062 84.898438 431.5625 84.898438 435.296875 "/>
<path style="fill-rule:nonzero;fill:rgb(18.431373%,30.980392%,30.980392%);fill-opacity:1;stroke-width:0.708661;stroke-linecap:round;stroke-linejoin:round;stroke:rgb(18.431373%,30.980392%,30.980392%);stroke-opacity:1;stroke-miterlimit:10;" d="M 363.761719 68.65625 C 363.761719 72.390625 360.738281 75.414062 357.003906 75.414062 C 353.273438 75.414062 350.25 72.390625 350.25 68.65625 C 350.25 64.925781 353.273438 61.902344 357.003906 61.902344 C 360.738281 61.902344 363.761719 64.925781 363.761719 68.65625 "/>
<path style="fill-rule:nonzero;fill:rgb(18.431373%,30.980392%,30.980392%);fill-opacity:1;stroke-width:0.708661;stroke-linecap:round;stroke-linejoin:round;stroke:rgb(18.431373%,30.980392%,30.980392%);stroke-opacity:1;stroke-miterlimit:10;" d="M 193.796875 276.34375 C 193.796875 280.078125 190.769531 283.101562 187.039062 283.101562 C 183.308594 283.101562 180.28125 280.078125 180.28125 276.34375 C 180.28125 272.613281 183.308594 269.589844 187.039062 269.589844 C 190.769531 269.589844 193.796875 272.613281 193.796875 276.34375 "/>
<path style="fill-rule:nonzero;fill:rgb(18.431373%,30.980392%,30.980392%);fill-opacity:1;stroke-width:0.708661;stroke-linecap:round;stroke-linejoin:round;stroke:rgb(18.431373%,30.980392%,30.980392%);stroke-opacity:1;stroke-miterlimit:10;" d="M 293.59375 353.527344 C 293.59375 357.261719 290.566406 360.285156 286.835938 360.285156 C 283.105469 360.285156 280.078125 357.261719 280.078125 353.527344 C 280.078125 349.796875 283.105469 346.773438 286.835938 346.773438 C 290.566406 346.773438 293.59375 349.796875 293.59375 353.527344 "/>
<path style="fill-rule:nonzero;fill:rgb(18.431373%,30.980392%,30.980392%);fill-opacity:1;stroke-width:0.708661;stroke-linecap:round;stroke-linejoin:round;stroke:rgb(18.431373%,30.980392%,30.980392%);stroke-opacity:1;stroke-miterlimit:10;" d="M 324.894531 204.847656 C 324.894531 208.578125 321.867188 211.601562 318.136719 211.601562 C 314.40625 211.601562 311.382812 208.578125 311.382812 204.847656 C 311.382812 201.117188 314.40625 198.089844 318.136719 198.089844 C 321.867188 198.089844 324.894531 201.117188 324.894531 204.847656 "/>
<path style="fill-rule:nonzero;fill:rgb(18.431373%,30.980392%,30.980392%);fill-opacity:1;stroke-width:0.708661;stroke-linecap:round;stroke-linejoin:round;stroke:rgb(18.431373%,30.980392%,30.980392%);stroke-opacity:1;stroke-miterlimit:10;" d="M 342.5 206.601562 C 342.5 210.335938 339.472656 213.359375 335.742188 213.359375 C 332.011719 213.359375 328.984375 210.335938 328.984375 206.601562 C 328.984375 202.871094 332.011719 199.847656 335.742188 199.847656 C 339.472656 199.847656 342.5 202.871094 342.5 206.601562 "/>
<path style="fill-rule:nonzero;fill:rgb(18.431373%,30.980392%,30.980392%);fill-opacity:1;stroke-width:0.708661;stroke-linecap:round;stroke-linejoin:round;stroke:rgb(18.431373%,30.980392%,30.980392%);stroke-opacity:1;stroke-miterlimit:10;" d="M 169.828125 404.710938 C 169.828125 408.441406 166.804688 411.46875 163.074219 411.46875 C 159.34375 411.46875 156.316406 408.441406 156.316406 404.710938 C 156.316406 400.980469 159.34375 397.953125 163.074219 397.953125 C 166.804688 397.953125 169.828125 400.980469 169.828125 404.710938 "/>
<path style="fill-rule:nonzero;fill:rgb(18.431373%,30.980392%,30.980392%);fill-opacity:1;stroke-width:0.708661;stroke-linecap:round;stroke-linejoin:round;stroke:rgb(18.431373%,30.980392%,30.980392%);stroke-opacity:1;stroke-miterlimit:10;" d="M 438.554688 23.4375 C 438.554688 27.171875 435.53125 30.195312 431.796875 30.195312 C 428.066406 30.195312 425.042969 27.171875 425.042969 23.4375 C 425.042969 19.707031 428.066406 16.683594 431.796875 16.683594 C 435.53125 16.683594 438.554688 19.707031 438.554688 23.4375 "/>
<path style="fill-rule:nonzero;fill:rgb(18.431373%,30.980392%,30.980392%);fill-opacity:1;stroke-width:0.708661;stroke-linecap:round;stroke-linejoin:round;stroke:rgb(18.431373%,30.980392%,30.980392%);stroke-opacity:1;stroke-miterlimit:10;" d="M 439.5625 150.976562 C 439.5625 154.707031 436.539062 157.730469 432.808594 157.730469 C 429.074219 157.730469 426.050781 154.707031 426.050781 150.976562 C 426.050781 147.242188 429.074219 144.21875 432.808594 144.21875 C 436.539062 144.21875 439.5625 147.242188 439.5625 150.976562 "/>
<path style="fill-rule:nonzero;fill:rgb(18.431373%,30.980392%,30.980392%);fill-opacity:1;stroke-width:0.708661;stroke-linecap:round;stroke-linejoin:round;stroke:rgb(18.431373%,30.980392%,30.980392%);stroke-opacity:1;stroke-miterlimit:10;" d="M 389.082031 162.148438 C 389.082031 165.878906 386.058594 168.902344 382.328125 168.902344 C 378.597656 168.902344 375.570312 165.878906 375.570312 162.148438 C 375.570312 158.414062 378.597656 155.390625 382.328125 155.390625 C 386.058594 155.390625 389.082031 158.414062 389.082031 162.148438 "/>
<path style="fill-rule:nonzero;fill:rgb(18.431373%,30.980392%,30.980392%);fill-opacity:1;stroke-width:0.708661;stroke-linecap:round;stroke-linejoin:round;stroke:rgb(18.431373%,30.980392%,30.980392%);stroke-opacity:1;stroke-miterlimit:10;" d="M 320.441406 280.234375 C 320.441406 283.964844 317.417969 286.988281 313.6875 286.988281 C 309.953125 286.988281 306.929688 283.964844 306.929688 280.234375 C 306.929688 276.503906 309.953125 273.476562 313.6875 273.476562 C 317.417969 273.476562 320.441406 276.503906 320.441406 280.234375 "/>
<path style="fill-rule:nonzero;fill:rgb(18.431373%,30.980392%,30.980392%);fill-opacity:1;stroke-width:0.708661;stroke-linecap:round;stroke-linejoin:round;stroke:rgb(18.431373%,30.980392%,30.980392%);stroke-opacity:1;stroke-miterlimit:10;" d="M 262.902344 247.050781 C 262.902344 250.78125 259.875 253.804688 256.144531 253.804688 C 252.414062 253.804688 249.386719 250.78125 249.386719 247.050781 C 249.386719 243.316406 252.414062 240.292969 256.144531 240.292969 C 259.875 240.292969 262.902344 243.316406 262.902344 247.050781 "/>
<path style="fill-rule:nonzero;fill:rgb(18.431373%,30.980392%,30.980392%);fill-opacity:1;stroke-width:0.708661;stroke-linecap:round;stroke-linejoin:round;stroke:rgb(18.431373%,30.980392%,30.980392%);stroke-opacity:1;stroke-miterlimit:10;" d="M 321.246094 212 C 321.246094 215.730469 318.222656 218.757812 314.492188 218.757812 C 310.757812 218.757812 307.734375 215.730469 307.734375 212 C 307.734375 208.269531 310.757812 205.242188 314.492188 205.242188 C 318.222656 205.242188 321.246094 208.269531 321.246094 212 "/>
<path style="fill-rule:nonzero;fill:rgb(18.431373%,30.980392%,30.980392%);fill-opacity:1;stroke-width:0.708661;stroke-linecap:round;stroke-linejoin:round;stroke:rgb(18.431373%,30.980392%,30.980392%);stroke-opacity:1;stroke-miterlimit:10;" d="M 341.785156 170.476562 C 341.785156 174.207031 338.761719 177.234375 335.027344 177.234375 C 331.296875 177.234375 328.273438 174.207031 328.273438 170.476562 C 328.273438 166.746094 331.296875 163.71875 335.027344 163.71875 C 338.761719 163.71875 341.785156 166.746094 341.785156 170.476562 "/>
<path style="fill-rule:nonzero;fill:rgb(18.431373%,30.980392%,30.980392%);fill-opacity:1;stroke-width:0.708661;stroke-linecap:round;stroke-linejoin:round;stroke:rgb(18.431373%,30.980392%,30.980392%);stroke-opacity:1;stroke-miterlimit:10;" d="M 371.625 283.078125 C 371.625 286.808594 368.597656 289.832031 364.867188 289.832031 C 361.136719 289.832031 358.113281 286.808594 358.113281 283.078125 C 358.113281 279.34375 361.136719 276.320312 364.867188 276.320312 C 368.597656 276.320312 371.625 279.34375 371.625 283.078125 "/>
<path style="fill-rule:nonzero;fill:rgb(18.431373%,30.980392%,30.980392%);fill-opacity:1;stroke-width:0.708661;stroke-linecap:round;stroke-linejoin:round;stroke:rgb(18.431373%,30.980392%,30.980392%);stroke-opacity:1;stroke-miterlimit:10;" d="M 221.367188 276.910156 C 221.367188 280.640625 218.339844 283.664062 214.609375 283.664062 C 210.878906 283.664062 207.851562 280.640625 207.851562 276.910156 C 207.851562 273.179688 210.878906 270.152344 214.609375 270.152344 C 218.339844 270.152344 221.367188 273.179688 221.367188 276.910156 "/>
<path style="fill-rule:nonzero;fill:rgb(18.431373%,30.980392%,30.980392%);fill-opacity:1;stroke-width:0.708661;stroke-linecap:round;stroke-linejoin:round;stroke:rgb(18.431373%,30.980392%,30.980392%);stroke-opacity:1;stroke-miterlimit:10;" d="M 227.820312 314.074219 C 227.820312 317.804688 224.796875 320.832031 221.0625 320.832031 C 217.332031 320.832031 214.308594 317.804688 214.308594 314.074219 C 214.308594 310.34375 217.332031 307.316406 221.0625 307.316406 C 224.796875 307.316406 227.820312 310.34375 227.820312 314.074219 "/>
<path style="fill-rule:nonzero;fill:rgb(18.431373%,30.980392%,30.980392%);fill-opacity:1;stroke-width:0.708661;stroke-linecap:round;stroke-linejoin:round;stroke:rgb(18.431373%,30.980392%,30.980392%);stroke-opacity:1;stroke-miterlimit:10;" d="M 240.613281 318.480469 C 240.613281 322.210938 237.589844 325.234375 233.855469 325.234375 C 230.125 325.234375 227.101562 322.210938 227.101562 318.480469 C 227.101562 314.746094 230.125 311.722656 233.855469 311.722656 C 237.589844 311.722656 240.613281 314.746094 240.613281 318.480469 "/>
<path style="fill-rule:nonzero;fill:rgb(18.431373%,30.980392%,30.980392%);fill-opacity:1;stroke-width:0.708661;stroke-linecap:round;stroke-linejoin:round;stroke:rgb(18.431373%,30.980392%,30.980392%);stroke-opacity:1;stroke-miterlimit:10;" d="M 161.445312 269.53125 C 161.445312 273.261719 158.417969 276.285156 154.6875 276.285156 C 150.957031 276.285156 147.929688 273.261719 147.929688 269.53125 C 147.929688 265.796875 150.957031 262.773438 154.6875 262.773438 C 158.417969 262.773438 161.445312 265.796875 161.445312 269.53125 "/>
<path style="fill-rule:nonzero;fill:rgb(18.431373%,30.980392%,30.980392%);fill-opacity:1;stroke-width:0.708661;stroke-linecap:round;stroke-linejoin:round;stroke:rgb(18.431373%,30.980392%,30.980392%);stroke-opacity:1;stroke-miterlimit:10;" d="M 312.539062 154.019531 C 312.539062 157.75 309.515625 160.777344 305.785156 160.777344 C 302.050781 160.777344 299.027344 157.75 299.027344 154.019531 C 299.027344 150.289062 302.050781 147.261719 305.785156 147.261719 C 309.515625 147.261719 312.539062 150.289062 312.539062 154.019531 "/>
<path style="fill-rule:nonzero;fill:rgb(18.431373%,30.980392%,30.980392%);fill-opacity:1;stroke-width:0.708661;stroke-linecap:round;stroke-linejoin:round;stroke:rgb(18.431373%,30.980392%,30.980392%);stroke-opacity:1;stroke-miterlimit:10;" d="M 317.589844 251.902344 C 317.589844 255.632812 314.5625 258.660156 310.832031 258.660156 C 307.101562 258.660156 304.078125 255.632812 304.078125 251.902344 C 304.078125 248.171875 307.101562 245.148438 310.832031 245.148438 C 314.5625 245.148438 317.589844 248.171875 317.589844 251.902344 "/>
<path style="fill-rule:nonzero;fill:rgb(18.431373%,30.980392%,30.980392%);fill-opacity:1;stroke-width:0.708661;stroke-linecap:round;stroke-linejoin:round;stroke:rgb(18.431373%,30.980392%,30.980392%);stroke-opacity:1;stroke-miterlimit:10;" d="M 415.753906 232.976562 C 415.753906 236.710938 412.730469 239.734375 409 239.734375 C 405.265625 239.734375 402.242188 236.710938 402.242188 232.976562 C 402.242188 229.246094 405.265625 226.222656 409 226.222656 C 412.730469 226.222656 415.753906 229.246094 415.753906 232.976562 "/>
<path style="fill-rule:nonzero;fill:rgb(18.431373%,30.980392%,30.980392%);fill-opacity:1;stroke-width:0.708661;stroke-linecap:round;stroke-linejoin:round;stroke:rgb(18.431373%,30.980392%,30.980392%);stroke-opacity:1;stroke-miterlimit:10;" d="M 208.6875 275.546875 C 208.6875 279.277344 205.664062 282.300781 201.933594 282.300781 C 198.203125 282.300781 195.175781 279.277344 195.175781 275.546875 C 195.175781 271.8125 198.203125 268.789062 201.933594 268.789062 C 205.664062 268.789062 208.6875 271.8125 208.6875 275.546875 "/>
<path style="fill-rule:nonzero;fill:rgb(18.431373%,30.980392%,30.980392%);fill-opacity:1;stroke-width:0.708661;stroke-linecap:round;stroke-linejoin:round;stroke:rgb(18.431373%,30.980392%,30.980392%);stroke-opacity:1;stroke-miterlimit:10;" d="M 159.28125 376.695312 C 159.28125 380.425781 156.253906 383.449219 152.523438 383.449219 C 148.792969 383.449219 145.769531 380.425781 145.769531 376.695312 C 145.769531 372.964844 148.792969 369.9375 152.523438 369.9375 C 156.253906 369.9375 159.28125 372.964844 159.28125 376.695312 "/>
<path style="fill-rule:nonzero;fill:rgb(18.431373%,30.980392%,30.980392%);fill-opacity:1;stroke-width:0.708661;stroke-linecap:round;stroke-linejoin:round;stroke:rgb(18.431373%,30.980392%,30.980392%);stroke-opacity:1;stroke-miterlimit:10;" d="M 366.621094 245.371094 C 366.621094 249.101562 363.59375 252.125 359.863281 252.125 C 356.132812 252.125 353.109375 249.101562 353.109375 245.371094 C 353.109375 241.636719 356.132812 238.613281 359.863281 238.613281 C 363.59375 238.613281 366.621094 241.636719 366.621094 245.371094 "/>
<path style="fill-rule:nonzero;fill:rgb(18.431373%,30.980392%,30.980392%);fill-opacity:1;stroke-width:0.708661;stroke-linecap:round;stroke-linejoin:round;stroke:rgb(18.431373%,30.980392%,30.980392%);stroke-opacity:1;stroke-miterlimit:10;" d="M 316.589844 323.671875 C 316.589844 327.402344 313.566406 330.429688 309.835938 330.429688 C 306.101562 330.429688 303.078125 327.402344 303.078125 323.671875 C 303.078125 319.941406 306.101562 316.914062 309.835938 316.914062 C 313.566406 316.914062 316.589844 319.941406 316.589844 323.671875 "/>
<path style="fill-rule:nonzero;fill:rgb(18.431373%,30.980392%,30.980392%);fill-opacity:1;stroke-width:0.708661;stroke-linecap:round;stroke-linejoin:round;stroke:rgb(18.431373%,30.980392%,30.980392%);stroke-opacity:1;stroke-miterlimit:10;" d="M 202.328125 353.917969 C 202.328125 357.648438 199.304688 360.675781 195.570312 360.675781 C 191.839844 360.675781 188.816406 357.648438 188.816406 353.917969 C 188.816406 350.1875 191.839844 347.164062 195.570312 347.164062 C 199.304688 347.164062 202.328125 350.1875 202.328125 353.917969 "/>
<path style="fill-rule:nonzero;fill:rgb(18.431373%,30.980392%,30.980392%);fill-opacity:1;stroke-width:0.708661;stroke-linecap:round;stroke-linejoin:round;stroke:rgb(18.431373%,30.980392%,30.980392%);stroke-opacity:1;stroke-miterlimit:10;" d="M 305.703125 281.402344 C 305.703125 285.132812 302.679688 288.15625 298.949219 288.15625 C 295.21875 288.15625 292.191406 285.132812 292.191406 281.402344 C 292.191406 277.667969 295.21875 274.644531 298.949219 274.644531 C 302.679688 274.644531 305.703125 277.667969 305.703125 281.402344 "/>
<path style="fill-rule:nonzero;fill:rgb(18.431373%,30.980392%,30.980392%);fill-opacity:1;stroke-width:0.708661;stroke-linecap:round;stroke-linejoin:round;stroke:rgb(18.431373%,30.980392%,30.980392%);stroke-opacity:1;stroke-miterlimit:10;" d="M 357.734375 126.761719 C 357.734375 130.492188 354.707031 133.515625 350.976562 133.515625 C 347.246094 133.515625 344.21875 130.492188 344.21875 126.761719 C 344.21875 123.027344 347.246094 120.003906 350.976562 120.003906 C 354.707031 120.003906 357.734375 123.027344 357.734375 126.761719 "/>
<path style="fill-rule:nonzero;fill:rgb(18.431373%,30.980392%,30.980392%);fill-opacity:1;stroke-width:0.708661;stroke-linecap:round;stroke-linejoin:round;stroke:rgb(18.431373%,30.980392%,30.980392%);stroke-opacity:1;stroke-miterlimit:10;" d="M 208.585938 189.402344 C 208.585938 193.132812 205.5625 196.160156 201.828125 196.160156 C 198.097656 196.160156 195.074219 193.132812 195.074219 189.402344 C 195.074219 185.671875 198.097656 182.648438 201.828125 182.648438 C 205.5625 182.648438 208.585938 185.671875 208.585938 189.402344 "/>
<path style="fill-rule:nonzero;fill:rgb(18.431373%,30.980392%,30.980392%);fill-opacity:1;stroke-width:0.708661;stroke-linecap:round;stroke-linejoin:round;stroke:rgb(18.431373%,30.980392%,30.980392%);stroke-opacity:1;stroke-miterlimit:10;" d="M 398.847656 192.972656 C 398.847656 196.703125 395.820312 199.726562 392.089844 199.726562 C 388.359375 199.726562 385.335938 196.703125 385.335938 192.972656 C 385.335938 189.238281 388.359375 186.214844 392.089844 186.214844 C 395.820312 186.214844 398.847656 189.238281 398.847656 192.972656 "/>
<path style="fill-rule:nonzero;fill:rgb(18.431373%,30.980392%,30.980392%);fill-opacity:1;stroke-width:0.708661;stroke-linecap:round;stroke-linejoin:round;stroke:rgb(18.431373%,30.980392%,30.980392%);stroke-opacity:1;stroke-miterlimit:10;" d="M 290.523438 282.257812 C 290.523438 285.988281 287.5 289.011719 283.769531 289.011719 C 280.035156 289.011719 277.011719 285.988281 277.011719 282.257812 C 277.011719 278.527344 280.035156 275.5 283.769531 275.5 C 287.5 275.5 290.523438 278.527344 290.523438 282.257812 "/>
<path style="fill-rule:nonzero;fill:rgb(18.431373%,30.980392%,30.980392%);fill-opacity:1;stroke-width:0.708661;stroke-linecap:round;stroke-linejoin:round;stroke:rgb(18.431373%,30.980392%,30.980392%);stroke-opacity:1;stroke-miterlimit:10;" d="M 29.9375 450.078125 C 29.9375 453.808594 26.914062 456.832031 23.183594 456.832031 C 19.449219 456.832031 16.425781 453.808594 16.425781 450.078125 C 16.425781 446.34375 19.449219 443.320312 23.183594 443.320312 C 26.914062 443.320312 29.9375 446.34375 29.9375 450.078125 "/>
<path style="fill-rule:nonzero;fill:rgb(18.431373%,30.980392%,30.980392%);fill-opacity:1;stroke-width:0.708661;stroke-linecap:round;stroke-linejoin:round;stroke:rgb(18.431373%,30.980392%,30.980392%);stroke-opacity:1;stroke-miterlimit:10;" d="M 52.355469 434.800781 C 52.355469 438.53125 49.328125 441.558594 45.597656 441.558594 C 41.867188 441.558594 38.84375 438.53125 38.84375 434.800781 C 38.84375 431.070312 41.867188 428.042969 45.597656 428.042969 C 49.328125 428.042969 52.355469 431.070312 52.355469 434.800781 "/>
<path style="fill-rule:nonzero;fill:rgb(18.431373%,30.980392%,30.980392%);fill-opacity:1;stroke-width:0.708661;stroke-linecap:round;stroke-linejoin:round;stroke:rgb(18.431373%,30.980392%,30.980392%);stroke-opacity:1;stroke-miterlimit:10;" d="M 297.210938 207.695312 C 297.210938 211.425781 294.1875 214.449219 290.453125 214.449219 C 286.722656 214.449219 283.699219 211.425781 283.699219 207.695312 C 283.699219 203.960938 286.722656 200.9375 290.453125 200.9375 C 294.1875 200.9375 297.210938 203.960938 297.210938 207.695312 "/>
<path style="fill-rule:nonzero;fill:rgb(18.431373%,30.980392%,30.980392%);fill-opacity:1;stroke-width:0.708661;stroke-linecap:round;stroke-linejoin:round;stroke:rgb(18.431373%,30.980392%,30.980392%);stroke-opacity:1;stroke-miterlimit:10;" d="M 198.691406 230.746094 C 198.691406 234.476562 195.664062 237.503906 191.933594 237.503906 C 188.203125 237.503906 185.175781 234.476562 185.175781 230.746094 C 185.175781 227.015625 188.203125 223.992188 191.933594 223.992188 C 195.664062 223.992188 198.691406 227.015625 198.691406 230.746094 "/>
<path style="fill-rule:nonzero;fill:rgb(18.431373%,30.980392%,30.980392%);fill-opacity:1;stroke-width:0.708661;stroke-linecap:round;stroke-linejoin:round;stroke:rgb(18.431373%,30.980392%,30.980392%);stroke-opacity:1;stroke-miterlimit:10;" d="M 226.941406 322.875 C 226.941406 326.605469 223.917969 329.628906 220.1875 329.628906 C 216.453125 329.628906 213.429688 326.605469 213.429688 322.875 C 213.429688 319.144531 216.453125 316.117188 220.1875 316.117188 C 223.917969 316.117188 226.941406 319.144531 226.941406 322.875 "/>
<path style="fill-rule:nonzero;fill:rgb(18.431373%,30.980392%,30.980392%);fill-opacity:1;stroke-width:0.708661;stroke-linecap:round;stroke-linejoin:round;stroke:rgb(18.431373%,30.980392%,30.980392%);stroke-opacity:1;stroke-miterlimit:10;" d="M 277.601562 176.941406 C 277.601562 180.671875 274.578125 183.699219 270.847656 183.699219 C 267.113281 183.699219 264.089844 180.671875 264.089844 176.941406 C 264.089844 173.210938 267.113281 170.183594 270.847656 170.183594 C 274.578125 170.183594 277.601562 173.210938 277.601562 176.941406 "/>
<path style="fill-rule:nonzero;fill:rgb(18.431373%,30.980392%,30.980392%);fill-opacity:1;stroke-width:0.708661;stroke-linecap:round;stroke-linejoin:round;stroke:rgb(18.431373%,30.980392%,30.980392%);stroke-opacity:1;stroke-miterlimit:10;" d="M 253.554688 277.136719 C 253.554688 280.867188 250.53125 283.890625 246.800781 283.890625 C 243.070312 283.890625 240.042969 280.867188 240.042969 277.136719 C 240.042969 273.40625 243.070312 270.378906 246.800781 270.378906 C 250.53125 270.378906 253.554688 273.40625 253.554688 277.136719 "/>
<path style="fill-rule:nonzero;fill:rgb(18.431373%,30.980392%,30.980392%);fill-opacity:1;stroke-width:0.708661;stroke-linecap:round;stroke-linejoin:round;stroke:rgb(18.431373%,30.980392%,30.980392%);stroke-opacity:1;stroke-miterlimit:10;" d="M 191.722656 401.867188 C 191.722656 405.597656 188.695312 408.625 184.964844 408.625 C 181.234375 408.625 178.210938 405.597656 178.210938 401.867188 C 178.210938 398.136719 181.234375 395.113281 184.964844 395.113281 C 188.695312 395.113281 191.722656 398.136719 191.722656 401.867188 "/>
<path style="fill-rule:nonzero;fill:rgb(18.431373%,30.980392%,30.980392%);fill-opacity:1;stroke-width:0.708661;stroke-linecap:round;stroke-linejoin:round;stroke:rgb(18.431373%,30.980392%,30.980392%);stroke-opacity:1;stroke-miterlimit:10;" d="M 164.734375 330.820312 C 164.734375 334.550781 161.710938 337.574219 157.976562 337.574219 C 154.246094 337.574219 151.222656 334.550781 151.222656 330.820312 C 151.222656 327.089844 154.246094 324.0625 157.976562 324.0625 C 161.710938 324.0625 164.734375 327.089844 164.734375 330.820312 "/>
<path style="fill-rule:nonzero;fill:rgb(18.431373%,30.980392%,30.980392%);fill-opacity:1;stroke-width:0.708661;stroke-linecap:round;stroke-linejoin:round;stroke:rgb(18.431373%,30.980392%,30.980392%);stroke-opacity:1;stroke-miterlimit:10;" d="M 233.511719 267.929688 C 233.511719 271.660156 230.488281 274.6875 226.753906 274.6875 C 223.023438 274.6875 220 271.660156 220 267.929688 C 220 264.199219 223.023438 261.171875 226.753906 261.171875 C 230.488281 261.171875 233.511719 264.199219 233.511719 267.929688 "/>
<path style="fill-rule:nonzero;fill:rgb(18.431373%,30.980392%,30.980392%);fill-opacity:1;stroke-width:0.708661;stroke-linecap:round;stroke-linejoin:round;stroke:rgb(18.431373%,30.980392%,30.980392%);stroke-opacity:1;stroke-miterlimit:10;" d="M 434.492188 239.425781 C 434.492188 243.15625 431.464844 246.179688 427.734375 246.179688 C 424.003906 246.179688 420.976562 243.15625 420.976562 239.425781 C 420.976562 235.691406 424.003906 232.667969 427.734375 232.667969 C 431.464844 232.667969 434.492188 235.691406 434.492188 239.425781 "/>
<path style="fill-rule:nonzero;fill:rgb(18.431373%,30.980392%,30.980392%);fill-opacity:1;stroke-width:0.708661;stroke-linecap:round;stroke-linejoin:round;stroke:rgb(18.431373%,30.980392%,30.980392%);stroke-opacity:1;stroke-miterlimit:10;" d="M 393.972656 250.628906 C 393.972656 254.359375 390.949219 257.386719 387.214844 257.386719 C 383.484375 257.386719 380.460938 254.359375 380.460938 250.628906 C 380.460938 246.898438 383.484375 243.875 387.214844 243.875 C 390.949219 243.875 393.972656 246.898438 393.972656 250.628906 "/>
<path style="fill-rule:nonzero;fill:rgb(18.431373%,30.980392%,30.980392%);fill-opacity:1;stroke-width:0.708661;stroke-linecap:round;stroke-linejoin:round;stroke:rgb(18.431373%,30.980392%,30.980392%);stroke-opacity:1;stroke-miterlimit:10;" d="M 259.261719 189.265625 C 259.261719 193 256.234375 196.023438 252.503906 196.023438 C 248.773438 196.023438 245.746094 193 245.746094 189.265625 C 245.746094 185.535156 248.773438 182.511719 252.503906 182.511719 C 256.234375 182.511719 259.261719 185.535156 259.261719 189.265625 "/>
<path style="fill-rule:nonzero;fill:rgb(18.431373%,30.980392%,30.980392%);fill-opacity:1;stroke-width:0.708661;stroke-linecap:round;stroke-linejoin:round;stroke:rgb(18.431373%,30.980392%,30.980392%);stroke-opacity:1;stroke-miterlimit:10;" d="M 232.644531 197.925781 C 232.644531 201.660156 229.621094 204.683594 225.890625 204.683594 C 222.160156 204.683594 219.132812 201.660156 219.132812 197.925781 C 219.132812 194.195312 222.160156 191.171875 225.890625 191.171875 C 229.621094 191.171875 232.644531 194.195312 232.644531 197.925781 "/>
<path style="fill-rule:nonzero;fill:rgb(18.431373%,30.980392%,30.980392%);fill-opacity:1;stroke-width:0.708661;stroke-linecap:round;stroke-linejoin:round;stroke:rgb(18.431373%,30.980392%,30.980392%);stroke-opacity:1;stroke-miterlimit:10;" d="M 78.851562 230.066406 C 78.851562 233.800781 75.828125 236.824219 72.09375 236.824219 C 68.363281 236.824219 65.339844 233.800781 65.339844 230.066406 C 65.339844 226.335938 68.363281 223.3125 72.09375 223.3125 C 75.828125 223.3125 78.851562 226.335938 78.851562 230.066406 "/>
<path style="fill-rule:nonzero;fill:rgb(18.431373%,30.980392%,30.980392%);fill-opacity:1;stroke-width:0.708661;stroke-linecap:round;stroke-linejoin:round;stroke:rgb(18.431373%,30.980392%,30.980392%);stroke-opacity:1;stroke-miterlimit:10;" d="M 240.886719 359.585938 C 240.886719 363.316406 237.859375 366.339844 234.128906 366.339844 C 230.398438 366.339844 227.371094 363.316406 227.371094 359.585938 C 227.371094 355.855469 230.398438 352.828125 234.128906 352.828125 C 237.859375 352.828125 240.886719 355.855469 240.886719 359.585938 "/>
<path style="fill-rule:nonzero;fill:rgb(18.431373%,30.980392%,30.980392%);fill-opacity:1;stroke-width:0.708661;stroke-linecap:round;stroke-linejoin:round;stroke:rgb(18.431373%,30.980392%,30.980392%);stroke-opacity:1;stroke-miterlimit:10;" d="M 317.164062 240.472656 C 317.164062 244.207031 314.140625 247.230469 310.410156 247.230469 C 306.675781 247.230469 303.652344 244.207031 303.652344 240.472656 C 303.652344 236.742188 306.675781 233.71875 310.410156 233.71875 C 314.140625 233.71875 317.164062 236.742188 317.164062 240.472656 "/>
<path style="fill-rule:nonzero;fill:rgb(18.431373%,30.980392%,30.980392%);fill-opacity:1;stroke-width:0.708661;stroke-linecap:round;stroke-linejoin:round;stroke:rgb(18.431373%,30.980392%,30.980392%);stroke-opacity:1;stroke-miterlimit:10;" d="M 135.371094 274.9375 C 135.371094 278.667969 132.347656 281.691406 128.617188 281.691406 C 124.882812 281.691406 121.859375 278.667969 121.859375 274.9375 C 121.859375 271.207031 124.882812 268.179688 128.617188 268.179688 C 132.347656 268.179688 135.371094 271.207031 135.371094 274.9375 "/>
<path style="fill-rule:nonzero;fill:rgb(18.431373%,30.980392%,30.980392%);fill-opacity:1;stroke-width:0.708661;stroke-linecap:round;stroke-linejoin:round;stroke:rgb(18.431373%,30.980392%,30.980392%);stroke-opacity:1;stroke-miterlimit:10;" d="M 334.097656 171.800781 C 334.097656 175.53125 331.074219 178.554688 327.34375 178.554688 C 323.613281 178.554688 320.585938 175.53125 320.585938 171.800781 C 320.585938 168.070312 323.613281 165.042969 327.34375 165.042969 C 331.074219 165.042969 334.097656 168.070312 334.097656 171.800781 "/>
<path style="fill-rule:nonzero;fill:rgb(18.431373%,30.980392%,30.980392%);fill-opacity:1;stroke-width:0.708661;stroke-linecap:round;stroke-linejoin:round;stroke:rgb(18.431373%,30.980392%,30.980392%);stroke-opacity:1;stroke-miterlimit:10;" d="M 339.90625 237.683594 C 339.90625 241.414062 336.878906 244.4375 333.148438 244.4375 C 329.417969 244.4375 326.390625 241.414062 326.390625 237.683594 C 326.390625 233.949219 329.417969 230.925781 333.148438 230.925781 C 336.878906 230.925781 339.90625 233.949219 339.90625 237.683594 "/>
<path style="fill-rule:nonzero;fill:rgb(18.431373%,30.980392%,30.980392%);fill-opacity:1;stroke-width:0.708661;stroke-linecap:round;stroke-linejoin:round;stroke:rgb(18.431373%,30.980392%,30.980392%);stroke-opacity:1;stroke-miterlimit:10;" d="M 141.320312 216.824219 C 141.320312 220.554688 138.292969 223.578125 134.5625 223.578125 C 130.832031 223.578125 127.804688 220.554688 127.804688 216.824219 C 127.804688 213.09375 130.832031 210.066406 134.5625 210.066406 C 138.292969 210.066406 141.320312 213.09375 141.320312 216.824219 "/>
<path style="fill-rule:nonzero;fill:rgb(18.431373%,30.980392%,30.980392%);fill-opacity:1;stroke-width:0.708661;stroke-linecap:round;stroke-linejoin:round;stroke:rgb(18.431373%,30.980392%,30.980392%);stroke-opacity:1;stroke-miterlimit:10;" d="M 361.632812 33.203125 C 361.632812 36.9375 358.609375 39.960938 354.878906 39.960938 C 351.148438 39.960938 348.121094 36.9375 348.121094 33.203125 C 348.121094 29.472656 351.148438 26.449219 354.878906 26.449219 C 358.609375 26.449219 361.632812 29.472656 361.632812 33.203125 "/>
<path style="fill-rule:nonzero;fill:rgb(18.431373%,30.980392%,30.980392%);fill-opacity:1;stroke-width:0.708661;stroke-linecap:round;stroke-linejoin:round;stroke:rgb(18.431373%,30.980392%,30.980392%);stroke-opacity:1;stroke-miterlimit:10;" d="M 220.675781 294 C 220.675781 297.730469 217.652344 300.753906 213.917969 300.753906 C 210.1875 300.753906 207.164062 297.730469 207.164062 294 C 207.164062 290.265625 210.1875 287.242188 213.917969 287.242188 C 217.652344 287.242188 220.675781 290.265625 220.675781 294 "/>
<path style="fill-rule:nonzero;fill:rgb(18.431373%,30.980392%,30.980392%);fill-opacity:1;stroke-width:0.708661;stroke-linecap:round;stroke-linejoin:round;stroke:rgb(18.431373%,30.980392%,30.980392%);stroke-opacity:1;stroke-miterlimit:10;" d="M 205.269531 380.539062 C 205.269531 384.269531 202.246094 387.292969 198.511719 387.292969 C 194.78125 387.292969 191.757812 384.269531 191.757812 380.539062 C 191.757812 376.804688 194.78125 373.78125 198.511719 373.78125 C 202.246094 373.78125 205.269531 376.804688 205.269531 380.539062 "/>
<path style="fill-rule:nonzero;fill:rgb(18.431373%,30.980392%,30.980392%);fill-opacity:1;stroke-width:0.708661;stroke-linecap:round;stroke-linejoin:round;stroke:rgb(18.431373%,30.980392%,30.980392%);stroke-opacity:1;stroke-miterlimit:10;" d="M 340.480469 224.992188 C 340.480469 228.722656 337.453125 231.75 333.722656 231.75 C 329.992188 231.75 326.96875 228.722656 326.96875 224.992188 C 326.96875 221.261719 329.992188 218.238281 333.722656 218.238281 C 337.453125 218.238281 340.480469 221.261719 340.480469 224.992188 "/>
<path style="fill-rule:nonzero;fill:rgb(18.431373%,30.980392%,30.980392%);fill-opacity:1;stroke-width:0.708661;stroke-linecap:round;stroke-linejoin:round;stroke:rgb(18.431373%,30.980392%,30.980392%);stroke-opacity:1;stroke-miterlimit:10;" d="M 290.167969 372.140625 C 290.167969 375.871094 287.144531 378.894531 283.414062 378.894531 C 279.683594 378.894531 276.65625 375.871094 276.65625 372.140625 C 276.65625 368.410156 279.683594 365.382812 283.414062 365.382812 C 287.144531 365.382812 290.167969 368.410156 290.167969 372.140625 "/>
<path style="fill-rule:nonzero;fill:rgb(18.431373%,30.980392%,30.980392%);fill-opacity:1;stroke-width:0.708661;stroke-linecap:round;stroke-linejoin:round;stroke:rgb(18.431373%,30.980392%,30.980392%);stroke-opacity:1;stroke-miterlimit:10;" d="M 214.574219 237.300781 C 214.574219 241.03125 211.550781 244.054688 207.820312 244.054688 C 204.085938 244.054688 201.0625 241.03125 201.0625 237.300781 C 201.0625 233.566406 204.085938 230.542969 207.820312 230.542969 C 211.550781 230.542969 214.574219 233.566406 214.574219 237.300781 "/>
<path style="fill-rule:nonzero;fill:rgb(18.431373%,30.980392%,30.980392%);fill-opacity:1;stroke-width:0.708661;stroke-linecap:round;stroke-linejoin:round;stroke:rgb(18.431373%,30.980392%,30.980392%);stroke-opacity:1;stroke-miterlimit:10;" d="M 132.921875 410.722656 C 132.921875 414.457031 129.898438 417.480469 126.164062 417.480469 C 122.433594 417.480469 119.410156 414.457031 119.410156 410.722656 C 119.410156 406.992188 122.433594 403.96875 126.164062 403.96875 C 129.898438 403.96875 132.921875 406.992188 132.921875 410.722656 "/>
<path style="fill-rule:nonzero;fill:rgb(18.431373%,30.980392%,30.980392%);fill-opacity:1;stroke-width:0.708661;stroke-linecap:round;stroke-linejoin:round;stroke:rgb(18.431373%,30.980392%,30.980392%);stroke-opacity:1;stroke-miterlimit:10;" d="M 346.066406 159.777344 C 346.066406 163.507812 343.039062 166.535156 339.308594 166.535156 C 335.578125 166.535156 332.554688 163.507812 332.554688 159.777344 C 332.554688 156.046875 335.578125 153.019531 339.308594 153.019531 C 343.039062 153.019531 346.066406 156.046875 346.066406 159.777344 "/>
<path style="fill-rule:nonzero;fill:rgb(18.431373%,30.980392%,30.980392%);fill-opacity:1;stroke-width:0.708661;stroke-linecap:round;stroke-linejoin:round;stroke:rgb(18.431373%,30.980392%,30.980392%);stroke-opacity:1;stroke-miterlimit:10;" d="M 141.972656 353.398438 C 141.972656 357.128906 138.949219 360.15625 135.214844 360.15625 C 131.484375 360.15625 128.460938 357.128906 128.460938 353.398438 C 128.460938 349.667969 131.484375 346.644531 135.214844 346.644531 C 138.949219 346.644531 141.972656 349.667969 141.972656 353.398438 "/>
<path style="fill-rule:nonzero;fill:rgb(18.431373%,30.980392%,30.980392%);fill-opacity:1;stroke-width:0.708661;stroke-linecap:round;stroke-linejoin:round;stroke:rgb(18.431373%,30.980392%,30.980392%);stroke-opacity:1;stroke-miterlimit:10;" d="M 61.703125 373.347656 C 61.703125 377.078125 58.679688 380.105469 54.945312 380.105469 C 51.214844 380.105469 48.191406 377.078125 48.191406 373.347656 C 48.191406 369.617188 51.214844 366.59375 54.945312 366.59375 C 58.679688 366.59375 61.703125 369.617188 61.703125 373.347656 "/>
<path style="fill-rule:nonzero;fill:rgb(18.431373%,30.980392%,30.980392%);fill-opacity:1;stroke-width:0.708661;stroke-linecap:round;stroke-linejoin:round;stroke:rgb(18.431373%,30.980392%,30.980392%);stroke-opacity:1;stroke-miterlimit:10;" d="M 349.75 287.839844 C 349.75 291.570312 346.722656 294.59375 342.992188 294.59375 C 339.261719 294.59375 336.234375 291.570312 336.234375 287.839844 C 336.234375 284.109375 339.261719 281.082031 342.992188 281.082031 C 346.722656 281.082031 349.75 284.109375 349.75 287.839844 "/>
<path style="fill-rule:nonzero;fill:rgb(18.431373%,30.980392%,30.980392%);fill-opacity:1;stroke-width:0.708661;stroke-linecap:round;stroke-linejoin:round;stroke:rgb(18.431373%,30.980392%,30.980392%);stroke-opacity:1;stroke-miterlimit:10;" d="M 339.523438 200.261719 C 339.523438 203.992188 336.5 207.015625 332.769531 207.015625 C 329.035156 207.015625 326.011719 203.992188 326.011719 200.261719 C 326.011719 196.527344 329.035156 193.503906 332.769531 193.503906 C 336.5 193.503906 339.523438 196.527344 339.523438 200.261719 "/>
<path style="fill-rule:nonzero;fill:rgb(18.431373%,30.980392%,30.980392%);fill-opacity:1;stroke-width:0.708661;stroke-linecap:round;stroke-linejoin:round;stroke:rgb(18.431373%,30.980392%,30.980392%);stroke-opacity:1;stroke-miterlimit:10;" d="M 309.777344 261.75 C 309.777344 265.480469 306.753906 268.503906 303.019531 268.503906 C 299.289062 268.503906 296.265625 265.480469 296.265625 261.75 C 296.265625 258.015625 299.289062 254.992188 303.019531 254.992188 C 306.753906 254.992188 309.777344 258.015625 309.777344 261.75 "/>
<path style="fill-rule:nonzero;fill:rgb(18.431373%,30.980392%,30.980392%);fill-opacity:1;stroke-width:0.708661;stroke-linecap:round;stroke-linejoin:round;stroke:rgb(18.431373%,30.980392%,30.980392%);stroke-opacity:1;stroke-miterlimit:10;" d="M 18.535156 408.441406 C 18.535156 412.171875 15.511719 415.195312 11.777344 415.195312 C 8.046875 415.195312 5.023438 412.171875 5.023438 408.441406 C 5.023438 404.707031 8.046875 401.683594 11.777344 401.683594 C 15.511719 401.683594 18.535156 404.707031 18.535156 408.441406 "/>
<path style="fill-rule:nonzero;fill:rgb(18.431373%,30.980392%,30.980392%);fill-opacity:1;stroke-width:0.708661;stroke-linecap:round;stroke-linejoin:round;stroke:rgb(18.431373%,30.980392%,30.980392%);stroke-opacity:1;stroke-miterlimit:10;" d="M 224.875 291.046875 C 224.875 294.777344 221.851562 297.804688 218.117188 297.804688 C 214.386719 297.804688 211.363281 294.777344 211.363281 291.046875 C 211.363281 287.316406 214.386719 284.289062 218.117188 284.289062 C 221.851562 284.289062 224.875 287.316406 224.875 291.046875 "/>
<path style="fill-rule:nonzero;fill:rgb(18.431373%,30.980392%,30.980392%);fill-opacity:1;stroke-width:0.708661;stroke-linecap:round;stroke-linejoin:round;stroke:rgb(18.431373%,30.980392%,30.980392%);stroke-opacity:1;stroke-miterlimit:10;" d="M 260.90625 190.660156 C 260.90625 194.390625 257.882812 197.417969 254.152344 197.417969 C 250.421875 197.417969 247.394531 194.390625 247.394531 190.660156 C 247.394531 186.929688 250.421875 183.90625 254.152344 183.90625 C 257.882812 183.90625 260.90625 186.929688 260.90625 190.660156 "/>
<path style="fill-rule:nonzero;fill:rgb(18.431373%,30.980392%,30.980392%);fill-opacity:1;stroke-width:0.708661;stroke-linecap:round;stroke-linejoin:round;stroke:rgb(18.431373%,30.980392%,30.980392%);stroke-opacity:1;stroke-miterlimit:10;" d="M 372.476562 289.886719 C 372.476562 293.621094 369.453125 296.644531 365.71875 296.644531 C 361.988281 296.644531 358.964844 293.621094 358.964844 289.886719 C 358.964844 286.15625 361.988281 283.132812 365.71875 283.132812 C 369.453125 283.132812 372.476562 286.15625 372.476562 289.886719 "/>
<path style="fill-rule:nonzero;fill:rgb(18.431373%,30.980392%,30.980392%);fill-opacity:1;stroke-width:0.708661;stroke-linecap:round;stroke-linejoin:round;stroke:rgb(18.431373%,30.980392%,30.980392%);stroke-opacity:1;stroke-miterlimit:10;" d="M 282.964844 260.121094 C 282.964844 263.851562 279.941406 266.875 276.207031 266.875 C 272.476562 266.875 269.453125 263.851562 269.453125 260.121094 C 269.453125 256.386719 272.476562 253.363281 276.207031 253.363281 C 279.941406 253.363281 282.964844 256.386719 282.964844 260.121094 "/>
<path style="fill-rule:nonzero;fill:rgb(18.431373%,30.980392%,30.980392%);fill-opacity:1;stroke-width:0.708661;stroke-linecap:round;stroke-linejoin:round;stroke:rgb(18.431373%,30.980392%,30.980392%);stroke-opacity:1;stroke-miterlimit:10;" d="M 124.503906 345.921875 C 124.503906 349.652344 121.480469 352.675781 117.746094 352.675781 C 114.015625 352.675781 110.992188 349.652344 110.992188 345.921875 C 110.992188 342.191406 114.015625 339.164062 117.746094 339.164062 C 121.480469 339.164062 124.503906 342.191406 124.503906 345.921875 "/>
</g>
</svg>
